<?xml version="1.0" encoding="utf-8" standalone="no"?>
<!DOCTYPE svg PUBLIC "-//W3C//DTD SVG 1.1//EN"
  "http://www.w3.org/Graphics/SVG/1.1/DTD/svg11.dtd">
<svg xmlns:xlink="http://www.w3.org/1999/xlink" width="268.246875pt" height="460.137675pt" viewBox="0 0 268.246875 460.137675" xmlns="http://www.w3.org/2000/svg" version="1.1">
 <metadata>
  <rdf:RDF xmlns:dc="http://purl.org/dc/elements/1.1/" xmlns:cc="http://creativecommons.org/ns#" xmlns:rdf="http://www.w3.org/1999/02/22-rdf-syntax-ns#">
   <cc:Work>
    <dc:type rdf:resource="http://purl.org/dc/dcmitype/StillImage"/>
    <dc:date>2022-12-06T14:45:08.609087</dc:date>
    <dc:format>image/svg+xml</dc:format>
    <dc:creator>
     <cc:Agent>
      <dc:title>Matplotlib v3.5.3, https://matplotlib.org/</dc:title>
     </cc:Agent>
    </dc:creator>
   </cc:Work>
  </rdf:RDF>
 </metadata>
 <defs>
  <style type="text/css">*{stroke-linejoin: round; stroke-linecap: butt}</style>
 </defs>
 <g id="figure_1">
  <g id="patch_1">
   <path d="M 0 460.137675 
L 268.246875 460.137675 
L 268.246875 0 
L 0 0 
z
" style="fill: #ffffff"/>
  </g>
  <g id="axes_1">
   <g id="patch_2">
    <path d="M 37.846875 221.1648 
L 130.846875 221.1648 
L 130.846875 55.584 
L 37.846875 55.584 
z
" style="fill: #ffffff"/>
   </g>
   <g id="matplotlib.axis_1">
    <g id="xtick_1">
     <g id="line2d_1"/>
     <g id="text_1">
      <!-- Q1 -->
      <g style="fill: #262626" transform="translate(45.605544 230.8723)scale(0.08 -0.08)">
       <defs>
        <path id="Ubuntu-51" d="M 371 2221 
Q 371 2790 540 3225 
Q 710 3661 1001 3952 
Q 1293 4243 1680 4390 
Q 2067 4538 2502 4538 
Q 2931 4538 3312 4390 
Q 3693 4243 3981 3952 
Q 4269 3661 4438 3225 
Q 4608 2790 4608 2221 
Q 4608 1722 4480 1331 
Q 4352 941 4125 656 
Q 3898 371 3594 195 
Q 3290 19 2944 -45 
Q 2950 -192 3075 -304 
Q 3200 -416 3392 -493 
Q 3584 -570 3821 -621 
Q 4058 -672 4294 -698 
L 4147 -1184 
Q 3814 -1139 3510 -1065 
Q 3206 -992 2960 -870 
Q 2714 -749 2547 -560 
Q 2381 -371 2323 -90 
Q 1920 -64 1561 99 
Q 1203 262 940 553 
Q 678 845 524 1261 
Q 371 1677 371 2221 
z
M 1024 2221 
Q 1024 1818 1126 1488 
Q 1229 1158 1417 928 
Q 1606 698 1878 573 
Q 2150 448 2490 448 
Q 2829 448 3097 573 
Q 3366 698 3555 928 
Q 3744 1158 3846 1488 
Q 3949 1818 3949 2221 
Q 3949 2624 3846 2953 
Q 3744 3283 3555 3513 
Q 3366 3744 3097 3869 
Q 2829 3994 2490 3994 
Q 2150 3994 1878 3869 
Q 1606 3744 1417 3513 
Q 1229 3283 1126 2953 
Q 1024 2624 1024 2221 
z
" transform="scale(0.015625)"/>
        <path id="Ubuntu-31" d="M 595 3520 
Q 960 3661 1305 3881 
Q 1651 4102 1939 4435 
L 2362 4435 
L 2362 0 
L 1766 0 
L 1766 3610 
Q 1690 3539 1578 3462 
Q 1466 3386 1334 3315 
Q 1203 3245 1059 3181 
Q 915 3117 781 3072 
L 595 3520 
z
" transform="scale(0.015625)"/>
       </defs>
       <use xlink:href="#Ubuntu-51"/>
       <use xlink:href="#Ubuntu-31" x="77.799988"/>
      </g>
     </g>
    </g>
    <g id="xtick_2">
     <g id="line2d_2"/>
     <g id="text_2">
      <!-- Q2 -->
      <g style="fill: #262626" transform="translate(67.854348 230.8723)scale(0.08 -0.08)">
       <defs>
        <path id="Ubuntu-32" d="M 2989 3302 
Q 2989 3072 2896 2857 
Q 2803 2643 2649 2435 
Q 2496 2227 2304 2025 
Q 2112 1824 1920 1632 
Q 1811 1523 1667 1376 
Q 1523 1229 1395 1069 
Q 1267 909 1180 761 
Q 1094 614 1094 506 
L 3136 506 
L 3136 0 
L 448 0 
Q 442 38 442 76 
Q 442 115 442 147 
Q 442 448 541 707 
Q 640 966 800 1196 
Q 960 1427 1158 1632 
Q 1357 1837 1549 2029 
Q 1709 2182 1853 2332 
Q 1997 2483 2109 2633 
Q 2221 2784 2288 2944 
Q 2355 3104 2355 3283 
Q 2355 3475 2294 3609 
Q 2234 3744 2131 3833 
Q 2029 3923 1891 3964 
Q 1754 4006 1600 4006 
Q 1414 4006 1260 3955 
Q 1107 3904 985 3837 
Q 864 3770 781 3696 
Q 698 3622 653 3584 
L 358 4006 
Q 416 4070 531 4163 
Q 646 4256 806 4339 
Q 966 4422 1164 4480 
Q 1363 4538 1594 4538 
Q 2291 4538 2640 4214 
Q 2989 3891 2989 3302 
z
" transform="scale(0.015625)"/>
       </defs>
       <use xlink:href="#Ubuntu-51"/>
       <use xlink:href="#Ubuntu-32" x="77.799988"/>
      </g>
     </g>
    </g>
    <g id="xtick_3">
     <g id="line2d_3"/>
     <g id="text_3">
      <!-- Q3 -->
      <g style="fill: #262626" transform="translate(90.103152 230.8723)scale(0.08 -0.08)">
       <defs>
        <path id="Ubuntu-33" d="M 1446 435 
Q 2016 435 2262 659 
Q 2509 883 2509 1261 
Q 2509 1504 2406 1670 
Q 2304 1837 2137 1936 
Q 1971 2035 1750 2076 
Q 1530 2118 1299 2118 
L 1146 2118 
L 1146 2605 
L 1357 2605 
Q 1517 2605 1686 2637 
Q 1856 2669 1997 2752 
Q 2138 2835 2227 2979 
Q 2317 3123 2317 3341 
Q 2317 3520 2253 3648 
Q 2189 3776 2083 3859 
Q 1978 3942 1840 3977 
Q 1702 4013 1549 4013 
Q 1242 4013 1027 3923 
Q 813 3834 666 3738 
L 435 4192 
Q 512 4243 630 4304 
Q 749 4365 896 4416 
Q 1043 4467 1212 4502 
Q 1382 4538 1568 4538 
Q 1920 4538 2176 4451 
Q 2432 4365 2598 4208 
Q 2765 4051 2848 3836 
Q 2931 3622 2931 3373 
Q 2931 3027 2732 2780 
Q 2534 2534 2253 2406 
Q 2426 2355 2586 2259 
Q 2746 2163 2864 2016 
Q 2982 1869 3056 1677 
Q 3130 1485 3130 1248 
Q 3130 960 3030 713 
Q 2931 467 2723 288 
Q 2515 109 2201 6 
Q 1888 -96 1459 -96 
Q 1293 -96 1117 -70 
Q 941 -45 787 -6 
Q 634 32 518 70 
Q 403 109 352 134 
L 467 653 
Q 576 602 829 518 
Q 1082 435 1446 435 
z
" transform="scale(0.015625)"/>
       </defs>
       <use xlink:href="#Ubuntu-51"/>
       <use xlink:href="#Ubuntu-33" x="77.799988"/>
      </g>
     </g>
    </g>
    <g id="xtick_4">
     <g id="line2d_4"/>
     <g id="text_4">
      <!-- Q4 -->
      <g style="fill: #262626" transform="translate(112.351956 230.8723)scale(0.08 -0.08)">
       <defs>
        <path id="Ubuntu-34" d="M 256 1536 
Q 378 1818 589 2192 
Q 800 2566 1065 2963 
Q 1331 3360 1635 3744 
Q 1939 4128 2246 4435 
L 2816 4435 
L 2816 1619 
L 3341 1619 
L 3341 1133 
L 2816 1133 
L 2816 0 
L 2240 0 
L 2240 1133 
L 256 1133 
L 256 1536 
z
M 2240 3731 
Q 2048 3526 1853 3273 
Q 1658 3021 1472 2745 
Q 1286 2470 1123 2182 
Q 960 1894 832 1619 
L 2240 1619 
L 2240 3731 
z
" transform="scale(0.015625)"/>
       </defs>
       <use xlink:href="#Ubuntu-51"/>
       <use xlink:href="#Ubuntu-34" x="77.799988"/>
      </g>
     </g>
    </g>
    <g id="text_5">
     <!-- Time (FY) -->
     <g style="fill: #262626" transform="translate(61.360156 244.181987)scale(0.1 -0.1)">
      <defs>
       <path id="Ubuntu-Bold-54" d="M 3802 4435 
L 3802 3584 
L 2464 3584 
L 2464 0 
L 1466 0 
L 1466 3584 
L 128 3584 
L 128 4435 
L 3802 4435 
z
" transform="scale(0.015625)"/>
       <path id="Ubuntu-Bold-69" d="M 1402 0 
L 448 0 
L 448 3366 
L 1402 3366 
L 1402 0 
z
M 1491 4339 
Q 1491 4077 1321 3926 
Q 1152 3776 922 3776 
Q 691 3776 521 3926 
Q 352 4077 352 4339 
Q 352 4602 521 4752 
Q 691 4902 922 4902 
Q 1152 4902 1321 4752 
Q 1491 4602 1491 4339 
z
" transform="scale(0.015625)"/>
       <path id="Ubuntu-Bold-6d" d="M 2298 1786 
Q 2298 2246 2179 2438 
Q 2061 2630 1773 2630 
Q 1683 2630 1587 2620 
Q 1491 2611 1402 2598 
L 1402 0 
L 448 0 
L 448 3251 
Q 570 3283 733 3318 
Q 896 3354 1078 3382 
Q 1261 3411 1453 3427 
Q 1645 3443 1830 3443 
Q 2195 3443 2422 3350 
Q 2650 3258 2797 3130 
Q 3002 3277 3267 3360 
Q 3533 3443 3757 3443 
Q 4160 3443 4419 3331 
Q 4678 3219 4832 3014 
Q 4986 2810 5043 2528 
Q 5101 2246 5101 1901 
L 5101 0 
L 4147 0 
L 4147 1786 
Q 4147 2246 4028 2438 
Q 3910 2630 3622 2630 
Q 3546 2630 3408 2592 
Q 3270 2554 3181 2496 
Q 3226 2349 3238 2185 
Q 3251 2022 3251 1837 
L 3251 0 
L 2298 0 
L 2298 1786 
z
" transform="scale(0.015625)"/>
       <path id="Ubuntu-Bold-65" d="M 288 1658 
Q 288 2106 425 2442 
Q 563 2778 787 3002 
Q 1011 3226 1302 3341 
Q 1594 3456 1901 3456 
Q 2618 3456 3034 3017 
Q 3450 2579 3450 1728 
Q 3450 1645 3443 1545 
Q 3437 1446 3430 1370 
L 1267 1370 
Q 1299 1075 1542 902 
Q 1786 730 2195 730 
Q 2458 730 2710 778 
Q 2963 826 3123 896 
L 3251 122 
Q 3174 83 3046 44 
Q 2918 6 2761 -22 
Q 2605 -51 2425 -70 
Q 2246 -90 2067 -90 
Q 1613 -90 1277 44 
Q 941 179 720 412 
Q 499 646 393 966 
Q 288 1286 288 1658 
z
M 2528 2022 
Q 2522 2144 2486 2259 
Q 2451 2374 2377 2464 
Q 2304 2554 2192 2611 
Q 2080 2669 1914 2669 
Q 1754 2669 1638 2614 
Q 1523 2560 1446 2470 
Q 1370 2381 1328 2262 
Q 1286 2144 1267 2022 
L 2528 2022 
z
" transform="scale(0.015625)"/>
       <path id="Ubuntu-Bold-20" transform="scale(0.015625)"/>
       <path id="Ubuntu-Bold-28" d="M 1389 1914 
Q 1389 1158 1625 473 
Q 1862 -211 2246 -755 
L 1581 -1184 
Q 1037 -550 742 237 
Q 448 1024 448 1914 
Q 448 2803 742 3590 
Q 1037 4378 1581 5011 
L 2246 4582 
Q 1862 4038 1625 3353 
Q 1389 2669 1389 1914 
z
" transform="scale(0.015625)"/>
       <path id="Ubuntu-Bold-46" d="M 512 0 
L 512 4435 
L 3482 4435 
L 3482 3597 
L 1510 3597 
L 1510 2669 
L 3264 2669 
L 3264 1830 
L 1510 1830 
L 1510 0 
L 512 0 
z
" transform="scale(0.015625)"/>
       <path id="Ubuntu-Bold-59" d="M 2138 2611 
Q 2406 3066 2649 3520 
Q 2893 3974 3098 4435 
L 4198 4435 
Q 3834 3718 3443 3046 
Q 3053 2374 2618 1696 
L 2618 0 
L 1619 0 
L 1619 1683 
Q 1184 2362 790 3040 
Q 397 3718 32 4435 
L 1190 4435 
Q 1395 3974 1632 3520 
Q 1869 3066 2138 2611 
z
" transform="scale(0.015625)"/>
       <path id="Ubuntu-Bold-29" d="M 890 1914 
Q 890 2669 653 3353 
Q 416 4038 32 4582 
L 698 5011 
Q 1242 4378 1536 3590 
Q 1830 2803 1830 1914 
Q 1830 1024 1536 237 
Q 1242 -550 698 -1184 
L 32 -755 
Q 416 -211 653 473 
Q 890 1158 890 1914 
z
" transform="scale(0.015625)"/>
      </defs>
      <use xlink:href="#Ubuntu-Bold-54"/>
      <use xlink:href="#Ubuntu-Bold-69" x="61.399994"/>
      <use xlink:href="#Ubuntu-Bold-6d" x="90.299988"/>
      <use xlink:href="#Ubuntu-Bold-65" x="176.499969"/>
      <use xlink:href="#Ubuntu-Bold-20" x="234.899963"/>
      <use xlink:href="#Ubuntu-Bold-28" x="258.899948"/>
      <use xlink:href="#Ubuntu-Bold-46" x="294.499939"/>
      <use xlink:href="#Ubuntu-Bold-59" x="354.649933"/>
      <use xlink:href="#Ubuntu-Bold-29" x="424.124924"/>
     </g>
    </g>
   </g>
   <g id="matplotlib.axis_2">
    <g id="ytick_1">
     <g id="line2d_5"/>
     <g id="text_6">
      <!-- 0 -->
      <g style="fill: #262626" transform="translate(29.834375 224.26855)scale(0.08 -0.08)">
       <defs>
        <path id="Ubuntu-30" d="M 320 2221 
Q 320 3334 713 3936 
Q 1107 4538 1805 4538 
Q 2502 4538 2896 3936 
Q 3290 3334 3290 2221 
Q 3290 1107 2896 505 
Q 2502 -96 1805 -96 
Q 1107 -96 713 505 
Q 320 1107 320 2221 
z
M 2662 2221 
Q 2662 2586 2620 2912 
Q 2579 3238 2480 3481 
Q 2381 3725 2214 3869 
Q 2048 4013 1805 4013 
Q 1562 4013 1395 3869 
Q 1229 3725 1129 3481 
Q 1030 3238 988 2912 
Q 947 2586 947 2221 
Q 947 1856 988 1529 
Q 1030 1203 1129 960 
Q 1229 717 1395 573 
Q 1562 429 1805 429 
Q 2048 429 2214 573 
Q 2381 717 2480 960 
Q 2579 1203 2620 1529 
Q 2662 1856 2662 2221 
z
" transform="scale(0.015625)"/>
       </defs>
       <use xlink:href="#Ubuntu-30"/>
      </g>
     </g>
    </g>
    <g id="ytick_2">
     <g id="line2d_6"/>
     <g id="text_7">
      <!-- 20 -->
      <g style="fill: #262626" transform="translate(25.321875 199.03719)scale(0.08 -0.08)">
       <use xlink:href="#Ubuntu-32"/>
       <use xlink:href="#Ubuntu-30" x="56.399994"/>
      </g>
     </g>
    </g>
    <g id="ytick_3">
     <g id="line2d_7"/>
     <g id="text_8">
      <!-- 40 -->
      <g style="fill: #262626" transform="translate(25.321875 173.80583)scale(0.08 -0.08)">
       <use xlink:href="#Ubuntu-34"/>
       <use xlink:href="#Ubuntu-30" x="56.399994"/>
      </g>
     </g>
    </g>
    <g id="ytick_4">
     <g id="line2d_8"/>
     <g id="text_9">
      <!-- 60 -->
      <g style="fill: #262626" transform="translate(25.321875 148.57447)scale(0.08 -0.08)">
       <defs>
        <path id="Ubuntu-36" d="M 403 1779 
Q 403 2426 582 2922 
Q 762 3418 1091 3757 
Q 1421 4096 1891 4272 
Q 2362 4448 2950 4454 
L 2995 3955 
Q 2618 3949 2307 3872 
Q 1997 3795 1753 3628 
Q 1510 3462 1344 3196 
Q 1178 2931 1094 2541 
Q 1261 2618 1469 2669 
Q 1677 2720 1901 2720 
Q 2278 2720 2540 2605 
Q 2803 2490 2969 2301 
Q 3136 2112 3209 1865 
Q 3283 1619 3283 1350 
Q 3283 1107 3200 851 
Q 3117 595 2947 384 
Q 2778 173 2515 38 
Q 2253 -96 1894 -96 
Q 1165 -96 784 403 
Q 403 902 403 1779 
z
M 1837 2234 
Q 1613 2234 1421 2192 
Q 1229 2150 1037 2067 
Q 1030 1997 1027 1923 
Q 1024 1850 1024 1779 
Q 1024 1498 1062 1248 
Q 1101 998 1200 809 
Q 1299 621 1465 509 
Q 1632 397 1888 397 
Q 2099 397 2246 486 
Q 2394 576 2490 717 
Q 2586 858 2627 1021 
Q 2669 1184 2669 1338 
Q 2669 1773 2461 2003 
Q 2253 2234 1837 2234 
z
" transform="scale(0.015625)"/>
       </defs>
       <use xlink:href="#Ubuntu-36"/>
       <use xlink:href="#Ubuntu-30" x="56.399994"/>
      </g>
     </g>
    </g>
    <g id="ytick_5">
     <g id="line2d_9"/>
     <g id="text_10">
      <!-- 80 -->
      <g style="fill: #262626" transform="translate(25.321875 123.34311)scale(0.08 -0.08)">
       <defs>
        <path id="Ubuntu-38" d="M 3258 1152 
Q 3258 883 3165 656 
Q 3072 429 2889 259 
Q 2707 90 2432 -3 
Q 2157 -96 1798 -96 
Q 1382 -96 1104 22 
Q 826 141 659 320 
Q 493 499 422 713 
Q 352 928 352 1120 
Q 352 1306 413 1475 
Q 474 1645 573 1792 
Q 672 1939 803 2057 
Q 934 2176 1082 2266 
Q 454 2624 454 3322 
Q 454 3565 550 3785 
Q 646 4006 822 4172 
Q 998 4339 1248 4438 
Q 1498 4538 1805 4538 
Q 2163 4538 2419 4429 
Q 2675 4320 2838 4150 
Q 3002 3981 3075 3776 
Q 3149 3571 3149 3379 
Q 3149 3194 3094 3030 
Q 3040 2867 2947 2726 
Q 2854 2586 2736 2477 
Q 2618 2368 2490 2285 
Q 3245 1926 3258 1152 
z
M 954 1114 
Q 954 998 995 873 
Q 1037 749 1139 643 
Q 1242 538 1402 467 
Q 1562 397 1805 397 
Q 2022 397 2185 461 
Q 2349 525 2451 624 
Q 2554 723 2605 851 
Q 2656 979 2656 1114 
Q 2656 1318 2579 1472 
Q 2502 1626 2358 1741 
Q 2214 1856 2012 1936 
Q 1811 2016 1555 2074 
Q 1267 1914 1110 1677 
Q 954 1440 954 1114 
z
M 2554 3386 
Q 2554 3482 2512 3597 
Q 2470 3712 2380 3811 
Q 2291 3910 2150 3977 
Q 2010 4045 1805 4045 
Q 1600 4045 1456 3981 
Q 1312 3917 1222 3817 
Q 1133 3718 1091 3600 
Q 1050 3482 1050 3366 
Q 1050 3226 1101 3085 
Q 1152 2944 1261 2822 
Q 1370 2701 1546 2605 
Q 1722 2509 1965 2451 
Q 2234 2611 2394 2825 
Q 2554 3040 2554 3386 
z
" transform="scale(0.015625)"/>
       </defs>
       <use xlink:href="#Ubuntu-38"/>
       <use xlink:href="#Ubuntu-30" x="56.399994"/>
      </g>
     </g>
    </g>
    <g id="ytick_6">
     <g id="line2d_10"/>
     <g id="text_11">
      <!-- 100 -->
      <g style="fill: #262626" transform="translate(20.809375 98.11175)scale(0.08 -0.08)">
       <use xlink:href="#Ubuntu-31"/>
       <use xlink:href="#Ubuntu-30" x="56.399994"/>
       <use xlink:href="#Ubuntu-30" x="112.799988"/>
      </g>
     </g>
    </g>
    <g id="ytick_7">
     <g id="line2d_11"/>
     <g id="text_12">
      <!-- 120 -->
      <g style="fill: #262626" transform="translate(20.809375 72.88039)scale(0.08 -0.08)">
       <use xlink:href="#Ubuntu-31"/>
       <use xlink:href="#Ubuntu-32" x="56.399994"/>
       <use xlink:href="#Ubuntu-30" x="112.799988"/>
      </g>
     </g>
    </g>
    <g id="text_13">
     <!-- Sales -->
     <g style="fill: #262626" transform="translate(14.959375 151.0369)rotate(-90)scale(0.1 -0.1)">
      <defs>
       <path id="Ubuntu-Bold-53" d="M 1722 762 
Q 1933 762 2070 797 
Q 2208 832 2291 893 
Q 2374 954 2406 1037 
Q 2438 1120 2438 1222 
Q 2438 1440 2233 1584 
Q 2029 1728 1530 1894 
Q 1312 1971 1094 2070 
Q 877 2170 704 2320 
Q 531 2470 422 2684 
Q 314 2899 314 3206 
Q 314 3514 429 3760 
Q 544 4006 755 4179 
Q 966 4352 1267 4445 
Q 1568 4538 1946 4538 
Q 2394 4538 2720 4442 
Q 3046 4346 3258 4230 
L 2970 3443 
Q 2784 3539 2557 3612 
Q 2330 3686 2010 3686 
Q 1651 3686 1494 3587 
Q 1338 3488 1338 3283 
Q 1338 3162 1395 3078 
Q 1453 2995 1558 2928 
Q 1664 2861 1801 2806 
Q 1939 2752 2106 2694 
Q 2451 2566 2707 2441 
Q 2963 2317 3132 2150 
Q 3302 1984 3385 1760 
Q 3469 1536 3469 1216 
Q 3469 595 3033 252 
Q 2598 -90 1722 -90 
Q 1427 -90 1190 -54 
Q 954 -19 771 32 
Q 589 83 457 140 
Q 326 198 237 250 
L 518 1043 
Q 717 934 1008 848 
Q 1299 762 1722 762 
z
" transform="scale(0.015625)"/>
       <path id="Ubuntu-Bold-61" d="M 1734 666 
Q 1875 666 2003 672 
Q 2131 678 2208 691 
L 2208 1414 
Q 2150 1427 2035 1440 
Q 1920 1453 1824 1453 
Q 1690 1453 1571 1437 
Q 1453 1421 1363 1376 
Q 1274 1331 1222 1254 
Q 1171 1178 1171 1062 
Q 1171 838 1321 752 
Q 1472 666 1734 666 
z
M 1658 3456 
Q 2080 3456 2361 3360 
Q 2643 3264 2812 3085 
Q 2982 2906 3052 2650 
Q 3123 2394 3123 2080 
L 3123 96 
Q 2918 51 2553 -9 
Q 2189 -70 1670 -70 
Q 1344 -70 1078 -12 
Q 813 45 621 176 
Q 429 307 326 518 
Q 224 730 224 1037 
Q 224 1331 342 1536 
Q 461 1741 659 1862 
Q 858 1984 1114 2038 
Q 1370 2093 1645 2093 
Q 1830 2093 1974 2077 
Q 2118 2061 2208 2035 
L 2208 2125 
Q 2208 2368 2061 2515 
Q 1914 2662 1549 2662 
Q 1306 2662 1069 2627 
Q 832 2592 659 2528 
L 538 3296 
Q 621 3322 745 3350 
Q 870 3379 1017 3401 
Q 1165 3424 1328 3440 
Q 1491 3456 1658 3456 
z
" transform="scale(0.015625)"/>
       <path id="Ubuntu-Bold-6c" d="M 1792 -64 
Q 1376 -58 1117 25 
Q 858 109 707 259 
Q 557 410 502 624 
Q 448 838 448 1107 
L 448 4813 
L 1402 4966 
L 1402 1299 
Q 1402 1171 1421 1068 
Q 1440 966 1494 896 
Q 1549 826 1651 781 
Q 1754 736 1926 723 
L 1792 -64 
z
" transform="scale(0.015625)"/>
       <path id="Ubuntu-Bold-73" d="M 1414 685 
Q 1677 685 1785 736 
Q 1894 787 1894 934 
Q 1894 1050 1753 1136 
Q 1613 1222 1325 1331 
Q 1101 1414 918 1504 
Q 736 1594 608 1718 
Q 480 1843 409 2016 
Q 339 2189 339 2432 
Q 339 2906 691 3181 
Q 1043 3456 1658 3456 
Q 1965 3456 2246 3401 
Q 2528 3347 2694 3283 
L 2528 2541 
Q 2362 2598 2166 2643 
Q 1971 2688 1728 2688 
Q 1280 2688 1280 2438 
Q 1280 2381 1299 2336 
Q 1318 2291 1376 2249 
Q 1434 2208 1533 2160 
Q 1632 2112 1786 2054 
Q 2099 1939 2304 1827 
Q 2509 1715 2627 1584 
Q 2746 1453 2794 1293 
Q 2842 1133 2842 922 
Q 2842 422 2467 166 
Q 2093 -90 1408 -90 
Q 960 -90 662 -13 
Q 365 64 250 115 
L 410 890 
Q 653 794 909 739 
Q 1165 685 1414 685 
z
" transform="scale(0.015625)"/>
      </defs>
      <use xlink:href="#Ubuntu-Bold-53"/>
      <use xlink:href="#Ubuntu-Bold-61" x="59.449997"/>
      <use xlink:href="#Ubuntu-Bold-6c" x="114.749985"/>
      <use xlink:href="#Ubuntu-Bold-65" x="146.349976"/>
      <use xlink:href="#Ubuntu-Bold-73" x="204.749969"/>
     </g>
    </g>
   </g>
   <g id="patch_3">
    <path d="M 42.074148 221.1648 
L 59.873191 221.1648 
L 59.873191 63.4688 
L 42.074148 63.4688 
z
" clip-path="url(#pb17339ad0b)" style="fill: #1f77b4"/>
   </g>
   <g id="patch_4">
    <path d="M 64.322952 221.1648 
L 82.121995 221.1648 
L 82.121995 95.008 
L 64.322952 95.008 
z
" clip-path="url(#pb17339ad0b)" style="fill: #1f77b4"/>
   </g>
   <g id="patch_5">
    <path d="M 86.571755 221.1648 
L 104.370798 221.1648 
L 104.370798 107.62368 
L 86.571755 107.62368 
z
" clip-path="url(#pb17339ad0b)" style="fill: #1f77b4"/>
   </g>
   <g id="patch_6">
    <path d="M 108.820559 221.1648 
L 126.619602 221.1648 
L 126.619602 82.39232 
L 108.820559 82.39232 
z
" clip-path="url(#pb17339ad0b)" style="fill: #1f77b4"/>
   </g>
   <g id="patch_7">
    <path d="M 37.846875 221.1648 
L 37.846875 55.584 
" style="fill: none; stroke: #262626; stroke-width: 1.25; stroke-linejoin: miter; stroke-linecap: square"/>
   </g>
   <g id="patch_8">
    <path d="M 130.846875 221.1648 
L 130.846875 55.584 
" style="fill: none; stroke: #262626; stroke-width: 1.25; stroke-linejoin: miter; stroke-linecap: square"/>
   </g>
   <g id="patch_9">
    <path d="M 37.846875 221.1648 
L 130.846875 221.1648 
" style="fill: none; stroke: #262626; stroke-width: 1.25; stroke-linejoin: miter; stroke-linecap: square"/>
   </g>
   <g id="patch_10">
    <path d="M 37.846875 55.584 
L 130.846875 55.584 
" style="fill: none; stroke: #262626; stroke-width: 1.25; stroke-linejoin: miter; stroke-linecap: square"/>
   </g>
   <g id="text_14">
    <!-- Product A sales -->
    <g style="fill: #262626" transform="translate(50.846094 49.584)scale(0.1 -0.1)">
     <defs>
      <path id="Ubuntu-Italic-50" d="M 2707 4480 
Q 3482 4480 3875 4185 
Q 4269 3891 4269 3328 
Q 4269 2893 4105 2576 
Q 3942 2259 3641 2054 
Q 3341 1850 2918 1750 
Q 2496 1651 1978 1651 
L 1536 1651 
L 1139 0 
L 518 0 
L 1568 4378 
Q 1837 4442 2137 4461 
Q 2438 4480 2707 4480 
z
M 2630 3955 
Q 2176 3955 2080 3930 
L 1658 2170 
L 2061 2170 
Q 2330 2170 2611 2218 
Q 2893 2266 3117 2387 
Q 3341 2509 3485 2723 
Q 3629 2938 3629 3277 
Q 3629 3642 3360 3798 
Q 3091 3955 2630 3955 
z
" transform="scale(0.015625)"/>
      <path id="Ubuntu-Italic-72" d="M 2394 3398 
Q 2470 3398 2566 3392 
Q 2662 3386 2755 3370 
Q 2848 3354 2925 3338 
Q 3002 3322 3040 3302 
L 2867 2784 
Q 2739 2835 2572 2860 
Q 2406 2886 2253 2886 
Q 2118 2886 1987 2867 
Q 1856 2848 1760 2816 
L 1082 0 
L 486 0 
L 1254 3200 
Q 1510 3290 1804 3344 
Q 2099 3398 2394 3398 
z
" transform="scale(0.015625)"/>
      <path id="Ubuntu-Italic-6f" d="M 1760 -83 
Q 1235 -83 937 227 
Q 640 538 640 1082 
Q 640 1453 745 1862 
Q 851 2272 1081 2617 
Q 1312 2963 1677 3187 
Q 2042 3411 2560 3411 
Q 3085 3411 3382 3100 
Q 3680 2790 3680 2246 
Q 3680 1875 3574 1465 
Q 3469 1056 3238 710 
Q 3008 365 2643 141 
Q 2278 -83 1760 -83 
z
M 1862 422 
Q 2150 422 2377 588 
Q 2605 755 2761 1014 
Q 2918 1274 3001 1587 
Q 3085 1901 3085 2195 
Q 3085 2522 2944 2714 
Q 2803 2906 2458 2906 
Q 2170 2906 1942 2739 
Q 1715 2573 1558 2313 
Q 1402 2054 1318 1740 
Q 1235 1427 1235 1133 
Q 1235 806 1376 614 
Q 1517 422 1862 422 
z
" transform="scale(0.015625)"/>
      <path id="Ubuntu-Italic-64" d="M 3194 659 
Q 3194 512 3219 361 
Q 3245 211 3309 38 
L 2784 -38 
Q 2714 102 2675 301 
Q 2534 173 2297 45 
Q 2061 -83 1715 -83 
Q 1434 -83 1229 3 
Q 1024 90 889 250 
Q 755 410 691 630 
Q 627 851 627 1114 
Q 627 1542 771 1952 
Q 915 2362 1200 2682 
Q 1485 3002 1913 3197 
Q 2342 3392 2912 3392 
Q 2982 3392 3052 3385 
Q 3123 3379 3200 3366 
L 3558 4864 
L 4179 4966 
L 3277 1222 
Q 3245 1075 3219 940 
Q 3194 806 3194 659 
z
M 1837 422 
Q 2106 422 2294 534 
Q 2483 646 2624 794 
Q 2630 896 2646 1014 
Q 2662 1133 2694 1274 
L 3078 2874 
Q 3021 2886 2950 2889 
Q 2880 2893 2816 2893 
Q 2451 2893 2156 2752 
Q 1862 2611 1654 2374 
Q 1446 2138 1334 1827 
Q 1222 1517 1222 1178 
Q 1222 1030 1254 896 
Q 1286 762 1356 656 
Q 1427 550 1545 486 
Q 1664 422 1837 422 
z
" transform="scale(0.015625)"/>
      <path id="Ubuntu-Italic-75" d="M 1702 -83 
Q 1421 -83 1232 0 
Q 1043 83 924 224 
Q 806 365 755 557 
Q 704 749 704 966 
Q 704 1133 733 1296 
Q 762 1459 800 1626 
L 1210 3328 
L 1805 3328 
L 1427 1754 
Q 1395 1606 1344 1408 
Q 1293 1210 1293 1011 
Q 1293 896 1315 790 
Q 1338 685 1398 605 
Q 1459 525 1561 477 
Q 1664 429 1818 429 
Q 2093 429 2301 547 
Q 2509 666 2650 826 
Q 2656 928 2669 1037 
Q 2682 1146 2714 1274 
L 3206 3328 
L 3802 3328 
L 3296 1222 
Q 3264 1075 3241 937 
Q 3219 800 3219 653 
Q 3219 506 3244 358 
Q 3270 211 3334 38 
L 2810 -38 
Q 2778 32 2746 121 
Q 2714 211 2694 314 
Q 2624 250 2528 179 
Q 2432 109 2307 51 
Q 2182 -6 2032 -44 
Q 1882 -83 1702 -83 
z
" transform="scale(0.015625)"/>
      <path id="Ubuntu-Italic-63" d="M 640 1190 
Q 640 1626 771 2029 
Q 902 2432 1158 2739 
Q 1414 3046 1785 3228 
Q 2157 3411 2637 3411 
Q 2848 3411 3040 3382 
Q 3232 3354 3405 3270 
L 3181 2771 
Q 3078 2829 2940 2861 
Q 2803 2893 2586 2893 
Q 2272 2893 2022 2755 
Q 1773 2618 1597 2390 
Q 1421 2163 1328 1865 
Q 1235 1568 1235 1248 
Q 1235 1082 1270 934 
Q 1306 787 1395 675 
Q 1485 563 1635 499 
Q 1786 435 2016 435 
Q 2131 435 2259 457 
Q 2387 480 2496 512 
Q 2605 544 2691 579 
Q 2778 614 2816 646 
L 2867 141 
Q 2746 64 2490 -9 
Q 2234 -83 1907 -83 
Q 1600 -83 1363 9 
Q 1126 102 966 272 
Q 806 442 723 675 
Q 640 909 640 1190 
z
" transform="scale(0.015625)"/>
      <path id="Ubuntu-Italic-74" d="M 1626 -90 
Q 1146 -90 922 121 
Q 698 333 698 736 
Q 698 998 787 1408 
L 1472 4256 
L 2093 4358 
L 1843 3328 
L 2976 3328 
L 2854 2829 
L 1722 2829 
L 1370 1357 
Q 1293 1056 1293 832 
Q 1293 621 1408 528 
Q 1523 435 1792 435 
Q 1978 435 2157 496 
Q 2336 557 2432 608 
L 2477 102 
Q 2381 45 2150 -22 
Q 1920 -90 1626 -90 
z
" transform="scale(0.015625)"/>
      <path id="Ubuntu-Italic-20" transform="scale(0.015625)"/>
      <path id="Ubuntu-Italic-41" d="M 1370 1139 
L 742 0 
L 64 0 
Q 781 1293 1462 2381 
Q 2144 3469 2810 4435 
L 3418 4435 
Q 3514 3955 3594 3465 
Q 3674 2976 3750 2438 
Q 3827 1901 3897 1299 
Q 3968 698 4045 0 
L 3418 0 
Q 3386 288 3360 579 
Q 3334 870 3302 1139 
L 1370 1139 
z
M 3245 1638 
Q 3194 2157 3126 2669 
Q 3059 3181 2970 3725 
Q 2746 3398 2413 2883 
Q 2080 2368 1658 1638 
L 3245 1638 
z
" transform="scale(0.015625)"/>
      <path id="Ubuntu-Italic-73" d="M 1318 416 
Q 1453 416 1590 441 
Q 1728 467 1833 524 
Q 1939 582 2006 681 
Q 2074 781 2074 928 
Q 2074 1024 2042 1097 
Q 2010 1171 1939 1235 
Q 1869 1299 1763 1360 
Q 1658 1421 1510 1498 
Q 1363 1568 1241 1638 
Q 1120 1709 1027 1805 
Q 934 1901 883 2032 
Q 832 2163 832 2349 
Q 832 2829 1177 3120 
Q 1523 3411 2182 3411 
Q 2490 3411 2723 3350 
Q 2957 3290 3046 3238 
L 2822 2752 
Q 2733 2803 2534 2860 
Q 2336 2918 2093 2918 
Q 1971 2918 1849 2892 
Q 1728 2867 1629 2806 
Q 1530 2746 1469 2646 
Q 1408 2547 1408 2406 
Q 1408 2234 1542 2122 
Q 1677 2010 1946 1888 
Q 2112 1811 2243 1731 
Q 2374 1651 2467 1552 
Q 2560 1453 2608 1318 
Q 2656 1184 2656 998 
Q 2656 730 2553 525 
Q 2451 320 2268 185 
Q 2086 51 1836 -16 
Q 1587 -83 1293 -83 
Q 1075 -83 899 -54 
Q 723 -26 592 12 
Q 461 51 374 92 
Q 288 134 243 160 
L 474 646 
Q 518 621 598 582 
Q 678 544 790 505 
Q 902 467 1036 441 
Q 1171 416 1318 416 
z
" transform="scale(0.015625)"/>
      <path id="Ubuntu-Italic-61" d="M 2765 -38 
Q 2733 32 2701 118 
Q 2669 205 2650 301 
Q 2509 173 2272 45 
Q 2035 -83 1690 -83 
Q 1408 -83 1206 6 
Q 1005 96 877 256 
Q 749 416 688 633 
Q 627 851 627 1114 
Q 627 1542 771 1952 
Q 915 2362 1203 2682 
Q 1491 3002 1926 3200 
Q 2362 3398 2944 3398 
Q 3117 3398 3347 3360 
Q 3578 3322 3744 3232 
L 3251 1222 
Q 3219 1075 3196 940 
Q 3174 806 3174 659 
Q 3174 512 3200 361 
Q 3226 211 3290 38 
L 2765 -38 
z
M 1811 422 
Q 2080 422 2272 537 
Q 2464 653 2605 806 
Q 2611 915 2627 1033 
Q 2643 1152 2669 1274 
L 3053 2861 
Q 3021 2874 2947 2880 
Q 2874 2886 2816 2886 
Q 2451 2886 2156 2745 
Q 1862 2605 1654 2371 
Q 1446 2138 1334 1827 
Q 1222 1517 1222 1178 
Q 1222 1043 1248 905 
Q 1274 768 1341 662 
Q 1408 557 1520 489 
Q 1632 422 1811 422 
z
" transform="scale(0.015625)"/>
      <path id="Ubuntu-Italic-6c" d="M 1376 1466 
Q 1344 1325 1312 1190 
Q 1280 1056 1280 934 
Q 1280 717 1385 589 
Q 1491 461 1779 429 
L 1645 -58 
Q 1382 -51 1200 22 
Q 1018 96 906 217 
Q 794 339 742 505 
Q 691 672 691 870 
Q 691 1018 716 1178 
Q 742 1338 787 1510 
L 1594 4864 
L 2214 4966 
L 1376 1466 
z
" transform="scale(0.015625)"/>
      <path id="Ubuntu-Italic-65" d="M 1306 1747 
Q 1677 1760 1984 1795 
Q 2291 1830 2515 1916 
Q 2739 2003 2864 2150 
Q 2989 2298 2989 2534 
Q 2989 2592 2966 2656 
Q 2944 2720 2889 2774 
Q 2835 2829 2739 2864 
Q 2643 2899 2502 2899 
Q 2278 2899 2083 2803 
Q 1888 2707 1734 2550 
Q 1581 2394 1472 2186 
Q 1363 1978 1306 1747 
z
M 1914 -83 
Q 1587 -83 1350 9 
Q 1114 102 954 265 
Q 794 429 717 646 
Q 640 864 640 1107 
Q 640 1555 774 1971 
Q 909 2387 1158 2707 
Q 1408 3027 1766 3216 
Q 2125 3405 2579 3405 
Q 2842 3405 3030 3337 
Q 3219 3270 3337 3155 
Q 3456 3040 3513 2889 
Q 3571 2739 3571 2579 
Q 3571 2278 3462 2070 
Q 3354 1862 3174 1721 
Q 2995 1581 2755 1504 
Q 2515 1427 2256 1382 
Q 1997 1338 1731 1322 
Q 1466 1306 1229 1293 
Q 1222 1242 1222 1210 
Q 1222 1178 1222 1158 
Q 1222 1011 1257 880 
Q 1293 749 1389 649 
Q 1485 550 1654 492 
Q 1824 435 2099 435 
Q 2221 435 2352 457 
Q 2483 480 2601 515 
Q 2720 550 2813 585 
Q 2906 621 2944 653 
L 2995 147 
Q 2867 77 2582 -3 
Q 2298 -83 1914 -83 
z
" transform="scale(0.015625)"/>
     </defs>
     <use xlink:href="#Ubuntu-Italic-50"/>
     <use xlink:href="#Ubuntu-Italic-72" x="58.999985"/>
     <use xlink:href="#Ubuntu-Italic-6f" x="95.699982"/>
     <use xlink:href="#Ubuntu-Italic-64" x="151.199966"/>
     <use xlink:href="#Ubuntu-Italic-75" x="205.899963"/>
     <use xlink:href="#Ubuntu-Italic-63" x="260.899948"/>
     <use xlink:href="#Ubuntu-Italic-74" x="305.999939"/>
     <use xlink:href="#Ubuntu-Italic-20" x="344.899933"/>
     <use xlink:href="#Ubuntu-Italic-41" x="367.999924"/>
     <use xlink:href="#Ubuntu-Italic-20" x="431.599915"/>
     <use xlink:href="#Ubuntu-Italic-73" x="454.699905"/>
     <use xlink:href="#Ubuntu-Italic-61" x="495.899902"/>
     <use xlink:href="#Ubuntu-Italic-6c" x="550.299896"/>
     <use xlink:href="#Ubuntu-Italic-65" x="577.024887"/>
     <use xlink:href="#Ubuntu-Italic-73" x="628.824875"/>
    </g>
   </g>
  </g>
  <g id="axes_2">
   <g id="patch_11">
    <path d="M 168.046875 221.1648 
L 261.046875 221.1648 
L 261.046875 55.584 
L 168.046875 55.584 
z
" style="fill: #ffffff"/>
   </g>
   <g id="matplotlib.axis_3">
    <g id="xtick_5">
     <g id="line2d_12"/>
     <g id="text_15">
      <!-- 0 -->
      <g style="fill: #262626" transform="translate(168.560217 230.8723)scale(0.08 -0.08)">
       <use xlink:href="#Ubuntu-30"/>
      </g>
     </g>
    </g>
    <g id="xtick_6">
     <g id="line2d_13"/>
     <g id="text_16">
      <!-- 25 -->
      <g style="fill: #262626" transform="translate(202.745974 230.8723)scale(0.08 -0.08)">
       <defs>
        <path id="Ubuntu-35" d="M 1274 2726 
Q 2240 2688 2691 2304 
Q 3142 1920 3142 1261 
Q 3142 966 3043 716 
Q 2944 467 2742 288 
Q 2541 109 2233 6 
Q 1926 -96 1504 -96 
Q 1338 -96 1165 -70 
Q 992 -45 845 -6 
Q 698 32 582 70 
Q 467 109 416 134 
L 531 653 
Q 640 602 886 518 
Q 1133 435 1491 435 
Q 1779 435 1974 499 
Q 2170 563 2291 672 
Q 2413 781 2467 925 
Q 2522 1069 2522 1229 
Q 2522 1472 2438 1661 
Q 2355 1850 2144 1978 
Q 1933 2106 1581 2173 
Q 1229 2240 691 2240 
Q 730 2554 752 2829 
Q 774 3104 793 3366 
Q 813 3629 825 3888 
Q 838 4147 851 4435 
L 2989 4435 
L 2989 3930 
L 1370 3930 
Q 1363 3834 1350 3670 
Q 1338 3507 1325 3331 
Q 1312 3155 1299 2988 
Q 1286 2822 1274 2726 
z
" transform="scale(0.015625)"/>
       </defs>
       <use xlink:href="#Ubuntu-32"/>
       <use xlink:href="#Ubuntu-35" x="56.399994"/>
      </g>
     </g>
    </g>
    <g id="xtick_7">
     <g id="line2d_14"/>
     <g id="text_17">
      <!-- 50 -->
      <g style="fill: #262626" transform="translate(239.18798 230.8723)scale(0.08 -0.08)">
       <use xlink:href="#Ubuntu-35"/>
       <use xlink:href="#Ubuntu-30" x="56.399994"/>
      </g>
     </g>
    </g>
    <g id="text_18">
     <!-- Age (days) -->
     <g style="fill: #262626" transform="translate(189.678125 244.181987)scale(0.1 -0.1)">
      <defs>
       <path id="Ubuntu-Bold-41" d="M 3482 0 
Q 3411 230 3324 473 
Q 3238 717 3155 960 
L 1427 960 
Q 1344 717 1257 473 
Q 1171 230 1101 0 
L 64 0 
Q 314 717 538 1325 
Q 762 1933 976 2470 
Q 1190 3008 1398 3491 
Q 1606 3974 1830 4435 
L 2784 4435 
Q 3002 3974 3213 3491 
Q 3424 3008 3638 2470 
Q 3853 1933 4077 1325 
Q 4301 717 4550 0 
L 3482 0 
z
M 2285 3430 
Q 2253 3334 2189 3168 
Q 2125 3002 2041 2784 
Q 1958 2566 1859 2304 
Q 1760 2042 1658 1754 
L 2918 1754 
Q 2816 2042 2720 2304 
Q 2624 2566 2537 2784 
Q 2451 3002 2387 3168 
Q 2323 3334 2285 3430 
z
" transform="scale(0.015625)"/>
       <path id="Ubuntu-Bold-67" d="M 1261 1792 
Q 1261 992 1907 992 
Q 2054 992 2182 1030 
Q 2310 1069 2400 1120 
L 2400 2643 
Q 2330 2656 2234 2665 
Q 2138 2675 2010 2675 
Q 1632 2675 1446 2425 
Q 1261 2176 1261 1792 
z
M 3354 422 
Q 3354 -403 2934 -803 
Q 2515 -1203 1638 -1203 
Q 1331 -1203 1024 -1148 
Q 717 -1094 454 -1005 
L 621 -205 
Q 845 -294 1091 -345 
Q 1338 -397 1651 -397 
Q 2061 -397 2230 -217 
Q 2400 -38 2400 243 
L 2400 365 
Q 2246 294 2083 259 
Q 1920 224 1728 224 
Q 1030 224 659 637 
Q 288 1050 288 1792 
Q 288 2163 403 2467 
Q 518 2771 739 2988 
Q 960 3206 1280 3324 
Q 1600 3443 2003 3443 
Q 2176 3443 2358 3427 
Q 2541 3411 2720 3385 
Q 2899 3360 3062 3325 
Q 3226 3290 3354 3251 
L 3354 422 
z
" transform="scale(0.015625)"/>
       <path id="Ubuntu-Bold-64" d="M 1261 1709 
Q 1261 1267 1459 998 
Q 1658 730 2048 730 
Q 2176 730 2285 739 
Q 2394 749 2464 762 
L 2464 2496 
Q 2374 2554 2230 2592 
Q 2086 2630 1939 2630 
Q 1261 2630 1261 1709 
z
M 3418 109 
Q 3290 70 3123 35 
Q 2957 0 2774 -25 
Q 2592 -51 2403 -67 
Q 2214 -83 2042 -83 
Q 1626 -83 1299 38 
Q 973 160 749 387 
Q 525 614 406 937 
Q 288 1261 288 1664 
Q 288 2074 390 2403 
Q 493 2733 685 2963 
Q 877 3194 1155 3315 
Q 1434 3437 1792 3437 
Q 1990 3437 2147 3398 
Q 2304 3360 2464 3290 
L 2464 4813 
L 3418 4966 
L 3418 109 
z
" transform="scale(0.015625)"/>
       <path id="Ubuntu-Bold-79" d="M 3437 3366 
Q 3149 2394 2835 1542 
Q 2522 691 2150 -109 
Q 2016 -397 1881 -598 
Q 1747 -800 1587 -931 
Q 1427 -1062 1225 -1123 
Q 1024 -1184 755 -1184 
Q 531 -1184 342 -1142 
Q 154 -1101 32 -1050 
L 198 -288 
Q 346 -339 461 -358 
Q 576 -378 704 -378 
Q 960 -378 1097 -240 
Q 1235 -102 1331 141 
Q 1005 781 678 1577 
Q 352 2374 64 3366 
L 1075 3366 
Q 1139 3117 1225 2825 
Q 1312 2534 1408 2236 
Q 1504 1939 1603 1657 
Q 1702 1376 1792 1146 
Q 1875 1376 1964 1657 
Q 2054 1939 2140 2236 
Q 2227 2534 2307 2825 
Q 2387 3117 2451 3366 
L 3437 3366 
z
" transform="scale(0.015625)"/>
      </defs>
      <use xlink:href="#Ubuntu-Bold-41"/>
      <use xlink:href="#Ubuntu-Bold-67" x="70.974991"/>
      <use xlink:href="#Ubuntu-Bold-65" x="130.374985"/>
      <use xlink:href="#Ubuntu-Bold-20" x="188.774979"/>
      <use xlink:href="#Ubuntu-Bold-28" x="212.774963"/>
      <use xlink:href="#Ubuntu-Bold-64" x="245.374954"/>
      <use xlink:href="#Ubuntu-Bold-61" x="305.774948"/>
      <use xlink:href="#Ubuntu-Bold-79" x="359.824936"/>
      <use xlink:href="#Ubuntu-Bold-73" x="414.524933"/>
      <use xlink:href="#Ubuntu-Bold-29" x="461.774918"/>
     </g>
    </g>
   </g>
   <g id="matplotlib.axis_4">
    <g id="ytick_8">
     <g id="line2d_15"/>
     <g id="text_19">
      <!-- 0.0 -->
      <g style="fill: #262626" transform="translate(153.554375 224.26855)scale(0.08 -0.08)">
       <defs>
        <path id="Ubuntu-2e" d="M 1216 346 
Q 1216 173 1101 45 
Q 986 -83 787 -83 
Q 589 -83 473 45 
Q 358 173 358 346 
Q 358 518 473 646 
Q 589 774 787 774 
Q 986 774 1101 646 
Q 1216 518 1216 346 
z
" transform="scale(0.015625)"/>
       </defs>
       <use xlink:href="#Ubuntu-30"/>
       <use xlink:href="#Ubuntu-2e" x="56.399994"/>
       <use xlink:href="#Ubuntu-30" x="80.999985"/>
      </g>
     </g>
    </g>
    <g id="ytick_9">
     <g id="line2d_16"/>
     <g id="text_20">
      <!-- 2.5 -->
      <g style="fill: #262626" transform="translate(153.554375 205.495217)scale(0.08 -0.08)">
       <use xlink:href="#Ubuntu-32"/>
       <use xlink:href="#Ubuntu-2e" x="56.399994"/>
       <use xlink:href="#Ubuntu-35" x="80.999985"/>
      </g>
     </g>
    </g>
    <g id="ytick_10">
     <g id="line2d_17"/>
     <g id="text_21">
      <!-- 5.0 -->
      <g style="fill: #262626" transform="translate(153.554375 186.721883)scale(0.08 -0.08)">
       <use xlink:href="#Ubuntu-35"/>
       <use xlink:href="#Ubuntu-2e" x="56.399994"/>
       <use xlink:href="#Ubuntu-30" x="80.999985"/>
      </g>
     </g>
    </g>
    <g id="ytick_11">
     <g id="line2d_18"/>
     <g id="text_22">
      <!-- 7.5 -->
      <g style="fill: #262626" transform="translate(153.554375 167.94855)scale(0.08 -0.08)">
       <defs>
        <path id="Ubuntu-37" d="M 1043 0 
Q 1082 512 1226 1078 
Q 1370 1645 1581 2179 
Q 1792 2714 2045 3171 
Q 2298 3629 2541 3917 
L 384 3917 
L 384 4435 
L 3206 4435 
L 3206 3942 
Q 2995 3699 2739 3273 
Q 2483 2848 2256 2320 
Q 2029 1792 1865 1193 
Q 1702 595 1664 0 
L 1043 0 
z
" transform="scale(0.015625)"/>
       </defs>
       <use xlink:href="#Ubuntu-37"/>
       <use xlink:href="#Ubuntu-2e" x="56.399994"/>
       <use xlink:href="#Ubuntu-35" x="80.999985"/>
      </g>
     </g>
    </g>
    <g id="ytick_12">
     <g id="line2d_19"/>
     <g id="text_23">
      <!-- 10.0 -->
      <g style="fill: #262626" transform="translate(149.041875 149.175217)scale(0.08 -0.08)">
       <use xlink:href="#Ubuntu-31"/>
       <use xlink:href="#Ubuntu-30" x="56.399994"/>
       <use xlink:href="#Ubuntu-2e" x="112.799988"/>
       <use xlink:href="#Ubuntu-30" x="137.399979"/>
      </g>
     </g>
    </g>
    <g id="ytick_13">
     <g id="line2d_20"/>
     <g id="text_24">
      <!-- 12.5 -->
      <g style="fill: #262626" transform="translate(149.041875 130.401883)scale(0.08 -0.08)">
       <use xlink:href="#Ubuntu-31"/>
       <use xlink:href="#Ubuntu-32" x="56.399994"/>
       <use xlink:href="#Ubuntu-2e" x="112.799988"/>
       <use xlink:href="#Ubuntu-35" x="137.399979"/>
      </g>
     </g>
    </g>
    <g id="ytick_14">
     <g id="line2d_21"/>
     <g id="text_25">
      <!-- 15.0 -->
      <g style="fill: #262626" transform="translate(149.041875 111.62855)scale(0.08 -0.08)">
       <use xlink:href="#Ubuntu-31"/>
       <use xlink:href="#Ubuntu-35" x="56.399994"/>
       <use xlink:href="#Ubuntu-2e" x="112.799988"/>
       <use xlink:href="#Ubuntu-30" x="137.399979"/>
      </g>
     </g>
    </g>
    <g id="ytick_15">
     <g id="line2d_22"/>
     <g id="text_26">
      <!-- 17.5 -->
      <g style="fill: #262626" transform="translate(149.041875 92.855217)scale(0.08 -0.08)">
       <use xlink:href="#Ubuntu-31"/>
       <use xlink:href="#Ubuntu-37" x="56.399994"/>
       <use xlink:href="#Ubuntu-2e" x="112.799988"/>
       <use xlink:href="#Ubuntu-35" x="137.399979"/>
      </g>
     </g>
    </g>
    <g id="ytick_16">
     <g id="line2d_23"/>
     <g id="text_27">
      <!-- 20.0 -->
      <g style="fill: #262626" transform="translate(149.041875 74.081883)scale(0.08 -0.08)">
       <use xlink:href="#Ubuntu-32"/>
       <use xlink:href="#Ubuntu-30" x="56.399994"/>
       <use xlink:href="#Ubuntu-2e" x="112.799988"/>
       <use xlink:href="#Ubuntu-30" x="137.399979"/>
      </g>
     </g>
    </g>
    <g id="text_28">
     <!-- Closed sales -->
     <g style="fill: #262626" transform="translate(143.191875 167.909556)rotate(-90)scale(0.1 -0.1)">
      <defs>
       <path id="Ubuntu-Bold-43" d="M 2534 -90 
Q 1453 -90 886 512 
Q 320 1114 320 2221 
Q 320 2771 493 3203 
Q 666 3635 966 3932 
Q 1267 4230 1683 4384 
Q 2099 4538 2586 4538 
Q 2867 4538 3097 4496 
Q 3328 4454 3501 4400 
Q 3674 4346 3789 4288 
Q 3904 4230 3955 4198 
L 3667 3392 
Q 3462 3501 3190 3577 
Q 2918 3654 2573 3654 
Q 2342 3654 2121 3577 
Q 1901 3501 1731 3331 
Q 1562 3162 1459 2893 
Q 1357 2624 1357 2240 
Q 1357 1933 1424 1667 
Q 1491 1402 1641 1210 
Q 1792 1018 2035 906 
Q 2278 794 2624 794 
Q 2842 794 3014 819 
Q 3187 845 3321 880 
Q 3456 915 3558 960 
Q 3661 1005 3744 1043 
L 4019 243 
Q 3808 115 3424 12 
Q 3040 -90 2534 -90 
z
" transform="scale(0.015625)"/>
       <path id="Ubuntu-Bold-6f" d="M 3597 1690 
Q 3597 1293 3481 963 
Q 3366 634 3148 400 
Q 2931 166 2627 38 
Q 2323 -90 1946 -90 
Q 1574 -90 1270 38 
Q 966 166 748 400 
Q 531 634 409 963 
Q 288 1293 288 1690 
Q 288 2086 413 2412 
Q 538 2739 758 2969 
Q 979 3200 1283 3328 
Q 1587 3456 1946 3456 
Q 2310 3456 2614 3328 
Q 2918 3200 3136 2969 
Q 3354 2739 3475 2412 
Q 3597 2086 3597 1690 
z
M 2624 1690 
Q 2624 2131 2448 2384 
Q 2272 2637 1946 2637 
Q 1619 2637 1440 2384 
Q 1261 2131 1261 1690 
Q 1261 1248 1440 989 
Q 1619 730 1946 730 
Q 2272 730 2448 989 
Q 2624 1248 2624 1690 
z
" transform="scale(0.015625)"/>
      </defs>
      <use xlink:href="#Ubuntu-Bold-43"/>
      <use xlink:href="#Ubuntu-Bold-6c" x="64.799988"/>
      <use xlink:href="#Ubuntu-Bold-6f" x="96.399979"/>
      <use xlink:href="#Ubuntu-Bold-73" x="157.099976"/>
      <use xlink:href="#Ubuntu-Bold-65" x="205.59996"/>
      <use xlink:href="#Ubuntu-Bold-64" x="263.999954"/>
      <use xlink:href="#Ubuntu-Bold-20" x="324.399948"/>
      <use xlink:href="#Ubuntu-Bold-73" x="348.399933"/>
      <use xlink:href="#Ubuntu-Bold-61" x="396.899918"/>
      <use xlink:href="#Ubuntu-Bold-6c" x="452.199905"/>
      <use xlink:href="#Ubuntu-Bold-65" x="483.799896"/>
      <use xlink:href="#Ubuntu-Bold-73" x="542.19989"/>
     </g>
    </g>
   </g>
   <g id="patch_12">
    <path d="M 172.274148 221.1648 
L 183.93559 221.1648 
L 183.93559 206.146133 
L 172.274148 206.146133 
z
" clip-path="url(#p1445b64604)" style="fill: #1f77b4"/>
   </g>
   <g id="patch_13">
    <path d="M 186.85095 221.1648 
L 198.512392 221.1648 
L 198.512392 183.618133 
L 186.85095 183.618133 
z
" clip-path="url(#p1445b64604)" style="fill: #1f77b4"/>
   </g>
   <g id="patch_14">
    <path d="M 201.427753 221.1648 
L 213.089195 221.1648 
L 213.089195 108.5248 
L 201.427753 108.5248 
z
" clip-path="url(#p1445b64604)" style="fill: #1f77b4"/>
   </g>
   <g id="patch_15">
    <path d="M 216.004555 221.1648 
L 227.665997 221.1648 
L 227.665997 63.4688 
L 216.004555 63.4688 
z
" clip-path="url(#p1445b64604)" style="fill: #1f77b4"/>
   </g>
   <g id="patch_16">
    <path d="M 230.581358 221.1648 
L 242.2428 221.1648 
L 242.2428 153.5808 
L 230.581358 153.5808 
z
" clip-path="url(#p1445b64604)" style="fill: #1f77b4"/>
   </g>
   <g id="patch_17">
    <path d="M 245.15816 221.1648 
L 256.819602 221.1648 
L 256.819602 198.6368 
L 245.15816 198.6368 
z
" clip-path="url(#p1445b64604)" style="fill: #1f77b4"/>
   </g>
   <g id="patch_18">
    <path d="M 168.046875 221.1648 
L 168.046875 55.584 
" style="fill: none; stroke: #262626; stroke-width: 1.25; stroke-linejoin: miter; stroke-linecap: square"/>
   </g>
   <g id="patch_19">
    <path d="M 261.046875 221.1648 
L 261.046875 55.584 
" style="fill: none; stroke: #262626; stroke-width: 1.25; stroke-linejoin: miter; stroke-linecap: square"/>
   </g>
   <g id="patch_20">
    <path d="M 168.046875 221.1648 
L 261.046875 221.1648 
" style="fill: none; stroke: #262626; stroke-width: 1.25; stroke-linejoin: miter; stroke-linecap: square"/>
   </g>
   <g id="patch_21">
    <path d="M 168.046875 55.584 
L 261.046875 55.584 
" style="fill: none; stroke: #262626; stroke-width: 1.25; stroke-linejoin: miter; stroke-linecap: square"/>
   </g>
   <g id="text_29">
    <!-- Opportunities age -->
    <g style="fill: #262626" transform="translate(175.00625 49.584)scale(0.1 -0.1)">
     <defs>
      <path id="Ubuntu-Italic-4f" d="M 3360 4538 
Q 3712 4538 4009 4432 
Q 4307 4326 4521 4115 
Q 4736 3904 4854 3587 
Q 4973 3270 4973 2848 
Q 4973 2317 4809 1792 
Q 4646 1267 4326 848 
Q 4006 429 3526 166 
Q 3046 -96 2406 -96 
Q 2048 -96 1753 9 
Q 1459 115 1244 326 
Q 1030 538 912 854 
Q 794 1171 794 1594 
Q 794 2118 954 2646 
Q 1114 3174 1437 3593 
Q 1760 4013 2240 4275 
Q 2720 4538 3360 4538 
z
M 2470 442 
Q 2899 442 3244 650 
Q 3590 858 3830 1190 
Q 4070 1523 4198 1939 
Q 4326 2355 4326 2771 
Q 4326 3341 4080 3670 
Q 3834 4000 3296 4000 
Q 2861 4000 2518 3792 
Q 2176 3584 1936 3251 
Q 1696 2918 1568 2502 
Q 1440 2086 1440 1670 
Q 1440 1101 1686 771 
Q 1933 442 2470 442 
z
" transform="scale(0.015625)"/>
      <path id="Ubuntu-Italic-70" d="M 2426 3411 
Q 2739 3411 2966 3321 
Q 3194 3232 3341 3075 
Q 3488 2918 3561 2704 
Q 3635 2490 3635 2234 
Q 3635 1792 3500 1379 
Q 3366 966 3088 646 
Q 2810 326 2384 134 
Q 1958 -58 1376 -58 
Q 1306 -58 1222 -51 
Q 1139 -45 1075 -32 
L 800 -1184 
L 205 -1184 
L 1254 3187 
Q 1523 3296 1840 3353 
Q 2157 3411 2426 3411 
z
M 1197 467 
Q 1261 454 1334 451 
Q 1408 448 1478 448 
Q 1843 448 2131 589 
Q 2419 730 2620 970 
Q 2822 1210 2931 1520 
Q 3040 1830 3040 2170 
Q 3040 2310 3008 2444 
Q 2976 2579 2889 2681 
Q 2803 2784 2656 2845 
Q 2509 2906 2278 2906 
Q 2118 2906 1984 2877 
Q 1850 2848 1760 2822 
L 1197 467 
z
" transform="scale(0.015625)"/>
      <path id="Ubuntu-Italic-6e" d="M 1082 0 
L 486 0 
L 1254 3200 
Q 1549 3290 1891 3344 
Q 2234 3398 2502 3398 
Q 2790 3398 2998 3318 
Q 3206 3238 3334 3100 
Q 3462 2963 3523 2768 
Q 3584 2573 3584 2342 
Q 3584 2195 3558 2032 
Q 3533 1869 3494 1702 
L 3085 0 
L 2490 0 
L 2867 1574 
Q 2912 1754 2953 1939 
Q 2995 2125 2995 2291 
Q 2995 2547 2854 2716 
Q 2714 2886 2330 2886 
Q 2170 2886 2016 2867 
Q 1862 2848 1760 2816 
L 1082 0 
z
" transform="scale(0.015625)"/>
      <path id="Ubuntu-Italic-69" d="M 1082 0 
L 486 0 
L 1286 3328 
L 1882 3328 
L 1082 0 
z
M 1773 3930 
Q 1626 3930 1526 4019 
Q 1427 4109 1427 4269 
Q 1427 4474 1555 4592 
Q 1683 4710 1843 4710 
Q 1990 4710 2092 4617 
Q 2195 4525 2195 4358 
Q 2195 4166 2060 4048 
Q 1926 3930 1773 3930 
z
" transform="scale(0.015625)"/>
      <path id="Ubuntu-Italic-67" d="M 1293 -691 
Q 1555 -691 1753 -627 
Q 1952 -563 2096 -441 
Q 2240 -320 2329 -153 
Q 2419 13 2470 224 
L 2496 346 
Q 2368 275 2150 204 
Q 1933 134 1702 134 
Q 1184 134 905 393 
Q 627 653 627 1120 
Q 627 1549 768 1958 
Q 909 2368 1197 2688 
Q 1485 3008 1913 3203 
Q 2342 3398 2918 3398 
Q 3008 3398 3120 3385 
Q 3232 3373 3350 3350 
Q 3469 3328 3581 3289 
Q 3693 3251 3776 3200 
L 3078 288 
Q 2995 -58 2873 -333 
Q 2752 -608 2541 -800 
Q 2330 -992 1997 -1097 
Q 1664 -1203 1165 -1203 
Q 890 -1203 621 -1129 
Q 352 -1056 166 -947 
L 390 -448 
Q 538 -557 781 -624 
Q 1024 -691 1293 -691 
z
M 1830 634 
Q 2086 634 2300 726 
Q 2515 819 2630 902 
L 3098 2848 
Q 3034 2861 2950 2873 
Q 2867 2886 2790 2886 
Q 2445 2886 2157 2755 
Q 1869 2624 1661 2403 
Q 1453 2182 1337 1891 
Q 1222 1600 1222 1286 
Q 1222 941 1372 787 
Q 1523 634 1830 634 
z
" transform="scale(0.015625)"/>
     </defs>
     <use xlink:href="#Ubuntu-Italic-4f"/>
     <use xlink:href="#Ubuntu-Italic-70" x="73.899994"/>
     <use xlink:href="#Ubuntu-Italic-70" x="128.499985"/>
     <use xlink:href="#Ubuntu-Italic-6f" x="183.099976"/>
     <use xlink:href="#Ubuntu-Italic-72" x="238.59996"/>
     <use xlink:href="#Ubuntu-Italic-74" x="275.799957"/>
     <use xlink:href="#Ubuntu-Italic-75" x="314.699951"/>
     <use xlink:href="#Ubuntu-Italic-6e" x="369.699936"/>
     <use xlink:href="#Ubuntu-Italic-69" x="424.799927"/>
     <use xlink:href="#Ubuntu-Italic-74" x="449.699921"/>
     <use xlink:href="#Ubuntu-Italic-69" x="488.599915"/>
     <use xlink:href="#Ubuntu-Italic-65" x="513.499908"/>
     <use xlink:href="#Ubuntu-Italic-73" x="565.299896"/>
     <use xlink:href="#Ubuntu-Italic-20" x="606.499893"/>
     <use xlink:href="#Ubuntu-Italic-61" x="629.599884"/>
     <use xlink:href="#Ubuntu-Italic-67" x="683.999878"/>
     <use xlink:href="#Ubuntu-Italic-65" x="738.999863"/>
    </g>
   </g>
  </g>
  <g id="axes_3">
   <g id="patch_22">
    <path d="M 37.846875 428.1408 
L 261.046875 428.1408 
L 261.046875 262.56 
L 37.846875 262.56 
z
" style="fill: #ffffff"/>
   </g>
   <g id="matplotlib.axis_5">
    <g id="xtick_8">
     <g id="line2d_24"/>
     <g id="text_30">
      <!-- Oct -->
      <g style="fill: #262626" transform="translate(45.823397 437.8483)scale(0.08 -0.08)">
       <defs>
        <path id="Ubuntu-4f" d="M 371 2221 
Q 371 2790 540 3225 
Q 710 3661 1001 3952 
Q 1293 4243 1680 4390 
Q 2067 4538 2502 4538 
Q 2931 4538 3312 4390 
Q 3693 4243 3981 3952 
Q 4269 3661 4438 3225 
Q 4608 2790 4608 2221 
Q 4608 1651 4438 1216 
Q 4269 781 3981 489 
Q 3693 198 3312 51 
Q 2931 -96 2502 -96 
Q 2067 -96 1680 51 
Q 1293 198 1001 489 
Q 710 781 540 1216 
Q 371 1651 371 2221 
z
M 1024 2221 
Q 1024 1818 1126 1488 
Q 1229 1158 1417 928 
Q 1606 698 1878 573 
Q 2150 448 2490 448 
Q 2829 448 3097 573 
Q 3366 698 3555 928 
Q 3744 1158 3846 1488 
Q 3949 1818 3949 2221 
Q 3949 2624 3846 2953 
Q 3744 3283 3555 3513 
Q 3366 3744 3097 3869 
Q 2829 3994 2490 3994 
Q 2150 3994 1878 3869 
Q 1606 3744 1417 3513 
Q 1229 3283 1126 2953 
Q 1024 2624 1024 2221 
z
" transform="scale(0.015625)"/>
        <path id="Ubuntu-63" d="M 1958 -77 
Q 1555 -77 1251 51 
Q 947 179 739 409 
Q 531 640 428 957 
Q 326 1274 326 1658 
Q 326 2042 438 2362 
Q 550 2682 755 2915 
Q 960 3149 1257 3280 
Q 1555 3411 1920 3411 
Q 2144 3411 2368 3372 
Q 2592 3334 2797 3251 
L 2662 2746 
Q 2528 2810 2352 2848 
Q 2176 2886 1978 2886 
Q 1478 2886 1212 2572 
Q 947 2259 947 1658 
Q 947 1389 1008 1165 
Q 1069 941 1200 781 
Q 1331 621 1536 534 
Q 1741 448 2035 448 
Q 2272 448 2464 493 
Q 2656 538 2765 589 
L 2848 90 
Q 2797 58 2701 29 
Q 2605 0 2483 -22 
Q 2362 -45 2224 -61 
Q 2086 -77 1958 -77 
z
" transform="scale(0.015625)"/>
        <path id="Ubuntu-74" d="M 1069 3328 
L 2330 3328 
L 2330 2829 
L 1069 2829 
L 1069 1293 
Q 1069 1043 1107 880 
Q 1146 717 1222 624 
Q 1299 531 1414 492 
Q 1530 454 1683 454 
Q 1952 454 2115 515 
Q 2278 576 2342 602 
L 2458 109 
Q 2368 64 2144 -3 
Q 1920 -70 1632 -70 
Q 1293 -70 1072 16 
Q 851 102 716 275 
Q 582 448 528 701 
Q 474 954 474 1286 
L 474 4256 
L 1069 4358 
L 1069 3328 
z
" transform="scale(0.015625)"/>
       </defs>
       <use xlink:href="#Ubuntu-4f"/>
       <use xlink:href="#Ubuntu-63" x="77.799988"/>
       <use xlink:href="#Ubuntu-74" x="124.299973"/>
      </g>
     </g>
    </g>
    <g id="xtick_9">
     <g id="line2d_25"/>
     <g id="text_31">
      <!-- Nov -->
      <g style="fill: #262626" transform="translate(93.700136 437.8483)scale(0.08 -0.08)">
       <defs>
        <path id="Ubuntu-4e" d="M 3590 0 
Q 3450 237 3267 531 
Q 3085 826 2873 1142 
Q 2662 1459 2435 1785 
Q 2208 2112 1984 2416 
Q 1760 2720 1549 2989 
Q 1338 3258 1158 3462 
L 1158 0 
L 550 0 
L 550 4435 
L 1043 4435 
Q 1344 4115 1686 3689 
Q 2029 3264 2365 2813 
Q 2701 2362 2998 1926 
Q 3296 1491 3501 1152 
L 3501 4435 
L 4109 4435 
L 4109 0 
L 3590 0 
z
" transform="scale(0.015625)"/>
        <path id="Ubuntu-6f" d="M 3450 1664 
Q 3450 1267 3334 947 
Q 3219 627 3011 396 
Q 2803 166 2515 41 
Q 2227 -83 1888 -83 
Q 1549 -83 1261 41 
Q 973 166 765 396 
Q 557 627 441 947 
Q 326 1267 326 1664 
Q 326 2054 441 2377 
Q 557 2701 765 2931 
Q 973 3162 1261 3286 
Q 1549 3411 1888 3411 
Q 2227 3411 2515 3286 
Q 2803 3162 3011 2931 
Q 3219 2701 3334 2377 
Q 3450 2054 3450 1664 
z
M 2829 1664 
Q 2829 2227 2576 2556 
Q 2323 2886 1888 2886 
Q 1453 2886 1200 2556 
Q 947 2227 947 1664 
Q 947 1101 1200 771 
Q 1453 442 1888 442 
Q 2323 442 2576 771 
Q 2829 1101 2829 1664 
z
" transform="scale(0.015625)"/>
        <path id="Ubuntu-76" d="M 3110 3328 
Q 2861 2394 2525 1536 
Q 2189 678 1875 0 
L 1338 0 
Q 1024 678 688 1536 
Q 352 2394 102 3328 
L 742 3328 
Q 819 3014 924 2659 
Q 1030 2304 1148 1955 
Q 1267 1606 1388 1280 
Q 1510 954 1619 698 
Q 1728 954 1849 1280 
Q 1971 1606 2089 1955 
Q 2208 2304 2313 2659 
Q 2419 3014 2496 3328 
L 3110 3328 
z
" transform="scale(0.015625)"/>
       </defs>
       <use xlink:href="#Ubuntu-4e"/>
       <use xlink:href="#Ubuntu-6f" x="72.799988"/>
       <use xlink:href="#Ubuntu-76" x="130.424973"/>
      </g>
     </g>
    </g>
    <g id="xtick_10">
     <g id="line2d_26"/>
     <g id="text_32">
      <!-- Dec -->
      <g style="fill: #262626" transform="translate(142.49875 437.8483)scale(0.08 -0.08)">
       <defs>
        <path id="Ubuntu-44" d="M 4192 2221 
Q 4192 1645 4013 1219 
Q 3834 794 3507 515 
Q 3181 237 2726 99 
Q 2272 -38 1728 -38 
Q 1459 -38 1136 -16 
Q 813 6 550 70 
L 550 4371 
Q 813 4435 1136 4457 
Q 1459 4480 1728 4480 
Q 2272 4480 2726 4342 
Q 3181 4205 3507 3926 
Q 3834 3648 4013 3222 
Q 4192 2797 4192 2221 
z
M 1779 506 
Q 2662 506 3097 957 
Q 3533 1408 3533 2221 
Q 3533 3034 3097 3485 
Q 2662 3936 1779 3936 
Q 1517 3936 1373 3929 
Q 1229 3923 1171 3917 
L 1171 525 
Q 1229 518 1373 512 
Q 1517 506 1779 506 
z
" transform="scale(0.015625)"/>
        <path id="Ubuntu-65" d="M 326 1658 
Q 326 2099 454 2428 
Q 582 2758 793 2976 
Q 1005 3194 1280 3302 
Q 1555 3411 1843 3411 
Q 2515 3411 2873 2992 
Q 3232 2573 3232 1715 
Q 3232 1677 3232 1616 
Q 3232 1555 3226 1504 
L 947 1504 
Q 986 986 1248 717 
Q 1510 448 2067 448 
Q 2381 448 2595 502 
Q 2810 557 2918 608 
L 3002 109 
Q 2893 51 2621 -13 
Q 2349 -77 2003 -77 
Q 1568 -77 1251 54 
Q 934 186 729 416 
Q 525 646 425 963 
Q 326 1280 326 1658 
z
M 2611 1984 
Q 2618 2387 2410 2646 
Q 2202 2906 1837 2906 
Q 1632 2906 1475 2826 
Q 1318 2746 1209 2618 
Q 1101 2490 1040 2323 
Q 979 2157 960 1984 
L 2611 1984 
z
" transform="scale(0.015625)"/>
       </defs>
       <use xlink:href="#Ubuntu-44"/>
       <use xlink:href="#Ubuntu-65" x="71.299988"/>
       <use xlink:href="#Ubuntu-63" x="127.199982"/>
      </g>
     </g>
    </g>
    <g id="xtick_11">
     <g id="line2d_27"/>
     <g id="text_33">
      <!-- Jan -->
      <g style="fill: #262626" transform="translate(191.584239 437.8483)scale(0.08 -0.08)">
       <defs>
        <path id="Ubuntu-4a" d="M 2682 1427 
Q 2682 1107 2614 832 
Q 2547 557 2377 349 
Q 2208 141 1923 22 
Q 1638 -96 1210 -96 
Q 992 -96 809 -61 
Q 627 -26 480 28 
Q 333 83 224 144 
Q 115 205 51 262 
L 294 755 
Q 429 659 643 553 
Q 858 448 1178 448 
Q 1638 448 1849 681 
Q 2061 915 2061 1485 
L 2061 4435 
L 2682 4435 
L 2682 1427 
z
" transform="scale(0.015625)"/>
        <path id="Ubuntu-61" d="M 1638 429 
Q 1850 429 2013 438 
Q 2176 448 2285 474 
L 2285 1466 
Q 2221 1498 2077 1520 
Q 1933 1542 1728 1542 
Q 1594 1542 1443 1523 
Q 1293 1504 1168 1443 
Q 1043 1382 960 1276 
Q 877 1171 877 998 
Q 877 678 1081 553 
Q 1286 429 1638 429 
z
M 1587 3411 
Q 1946 3411 2192 3318 
Q 2438 3226 2588 3056 
Q 2739 2886 2803 2652 
Q 2867 2419 2867 2138 
L 2867 58 
Q 2790 45 2652 22 
Q 2515 0 2342 -19 
Q 2170 -38 1968 -54 
Q 1766 -70 1568 -70 
Q 1286 -70 1049 -12 
Q 813 45 640 169 
Q 467 294 371 499 
Q 275 704 275 992 
Q 275 1267 387 1465 
Q 499 1664 691 1785 
Q 883 1907 1139 1964 
Q 1395 2022 1677 2022 
Q 1766 2022 1862 2012 
Q 1958 2003 2044 1987 
Q 2131 1971 2195 1958 
Q 2259 1946 2285 1939 
L 2285 2106 
Q 2285 2253 2253 2397 
Q 2221 2541 2137 2653 
Q 2054 2765 1910 2832 
Q 1766 2899 1536 2899 
Q 1242 2899 1021 2857 
Q 800 2816 691 2771 
L 621 3264 
Q 736 3315 1005 3363 
Q 1274 3411 1587 3411 
z
" transform="scale(0.015625)"/>
        <path id="Ubuntu-6e" d="M 512 3232 
Q 717 3283 1056 3340 
Q 1395 3398 1837 3398 
Q 2234 3398 2496 3286 
Q 2758 3174 2915 2972 
Q 3072 2771 3136 2489 
Q 3200 2208 3200 1869 
L 3200 0 
L 2605 0 
L 2605 1741 
Q 2605 2048 2563 2265 
Q 2522 2483 2426 2617 
Q 2330 2752 2170 2813 
Q 2010 2874 1773 2874 
Q 1677 2874 1574 2867 
Q 1472 2861 1379 2851 
Q 1286 2842 1212 2829 
Q 1139 2816 1107 2810 
L 1107 0 
L 512 0 
L 512 3232 
z
" transform="scale(0.015625)"/>
       </defs>
       <use xlink:href="#Ubuntu-4a"/>
       <use xlink:href="#Ubuntu-61" x="49.999985"/>
       <use xlink:href="#Ubuntu-6e" x="102.199982"/>
      </g>
     </g>
    </g>
    <g id="xtick_12">
     <g id="line2d_28"/>
     <g id="text_34">
      <!-- Feb -->
      <g style="fill: #262626" transform="translate(239.804728 437.8483)scale(0.08 -0.08)">
       <defs>
        <path id="Ubuntu-46" d="M 550 0 
L 550 4435 
L 3226 4435 
L 3226 3904 
L 1171 3904 
L 1171 2566 
L 2995 2566 
L 2995 2042 
L 1171 2042 
L 1171 0 
L 550 0 
z
" transform="scale(0.015625)"/>
        <path id="Ubuntu-62" d="M 1107 3181 
Q 1216 3251 1437 3328 
Q 1658 3405 1946 3405 
Q 2304 3405 2582 3277 
Q 2861 3149 3053 2918 
Q 3245 2688 3344 2368 
Q 3443 2048 3443 1664 
Q 3443 1261 3324 937 
Q 3206 614 2988 390 
Q 2771 166 2464 44 
Q 2157 -77 1773 -77 
Q 1357 -77 1037 -19 
Q 717 38 512 96 
L 512 4864 
L 1107 4966 
L 1107 3181 
z
M 1107 518 
Q 1197 493 1360 470 
Q 1523 448 1766 448 
Q 2246 448 2534 765 
Q 2822 1082 2822 1664 
Q 2822 1920 2771 2144 
Q 2720 2368 2605 2531 
Q 2490 2694 2307 2787 
Q 2125 2880 1869 2880 
Q 1626 2880 1421 2797 
Q 1216 2714 1107 2624 
L 1107 518 
z
" transform="scale(0.015625)"/>
       </defs>
       <use xlink:href="#Ubuntu-46"/>
       <use xlink:href="#Ubuntu-65" x="52.324997"/>
       <use xlink:href="#Ubuntu-62" x="108.224991"/>
      </g>
     </g>
    </g>
    <g id="text_35">
     <!-- Months -->
     <g style="fill: #262626" transform="translate(131.390625 451.087675)scale(0.1 -0.1)">
      <defs>
       <path id="Ubuntu-Bold-4d" d="M 1690 4435 
Q 1805 4224 1955 3913 
Q 2106 3603 2269 3241 
Q 2432 2880 2592 2502 
Q 2752 2125 2893 1792 
Q 3034 2125 3194 2502 
Q 3354 2880 3517 3241 
Q 3680 3603 3830 3913 
Q 3981 4224 4096 4435 
L 5005 4435 
Q 5069 3994 5123 3446 
Q 5178 2899 5219 2307 
Q 5261 1715 5296 1120 
Q 5331 525 5357 0 
L 4384 0 
Q 4365 646 4333 1408 
Q 4301 2170 4237 2944 
Q 4122 2675 3981 2348 
Q 3840 2022 3702 1696 
Q 3565 1370 3437 1072 
Q 3309 774 3219 563 
L 2522 563 
Q 2432 774 2304 1072 
Q 2176 1370 2038 1696 
Q 1901 2022 1760 2348 
Q 1619 2675 1504 2944 
Q 1440 2170 1408 1408 
Q 1376 646 1357 0 
L 384 0 
Q 410 525 445 1120 
Q 480 1715 521 2307 
Q 563 2899 617 3446 
Q 672 3994 736 4435 
L 1690 4435 
z
" transform="scale(0.015625)"/>
       <path id="Ubuntu-Bold-6e" d="M 448 3251 
Q 691 3322 1075 3382 
Q 1459 3443 1882 3443 
Q 2310 3443 2595 3331 
Q 2880 3219 3046 3014 
Q 3213 2810 3283 2528 
Q 3354 2246 3354 1901 
L 3354 0 
L 2400 0 
L 2400 1786 
Q 2400 2246 2278 2438 
Q 2157 2630 1824 2630 
Q 1722 2630 1606 2620 
Q 1491 2611 1402 2598 
L 1402 0 
L 448 0 
L 448 3251 
z
" transform="scale(0.015625)"/>
       <path id="Ubuntu-Bold-74" d="M 416 4205 
L 1370 4358 
L 1370 3366 
L 2515 3366 
L 2515 2573 
L 1370 2573 
L 1370 1389 
Q 1370 1088 1475 909 
Q 1581 730 1901 730 
Q 2054 730 2217 758 
Q 2381 787 2515 838 
L 2650 96 
Q 2477 26 2265 -25 
Q 2054 -77 1747 -77 
Q 1357 -77 1101 28 
Q 845 134 691 323 
Q 538 512 477 781 
Q 416 1050 416 1376 
L 416 4205 
z
" transform="scale(0.015625)"/>
       <path id="Ubuntu-Bold-68" d="M 448 0 
L 448 4813 
L 1402 4966 
L 1402 3354 
Q 1498 3386 1648 3414 
Q 1798 3443 1939 3443 
Q 2349 3443 2621 3331 
Q 2893 3219 3056 3014 
Q 3219 2810 3286 2528 
Q 3354 2246 3354 1901 
L 3354 0 
L 2400 0 
L 2400 1786 
Q 2400 2246 2281 2438 
Q 2163 2630 1843 2630 
Q 1715 2630 1603 2608 
Q 1491 2586 1402 2560 
L 1402 0 
L 448 0 
z
" transform="scale(0.015625)"/>
      </defs>
      <use xlink:href="#Ubuntu-Bold-4d"/>
      <use xlink:href="#Ubuntu-Bold-6f" x="89.699982"/>
      <use xlink:href="#Ubuntu-Bold-6e" x="150.399979"/>
      <use xlink:href="#Ubuntu-Bold-74" x="209.299973"/>
      <use xlink:href="#Ubuntu-Bold-68" x="253.699966"/>
      <use xlink:href="#Ubuntu-Bold-73" x="312.59996"/>
     </g>
    </g>
   </g>
   <g id="matplotlib.axis_6">
    <g id="ytick_17">
     <g id="line2d_29"/>
     <g id="text_36">
      <!-- 2 -->
      <g style="fill: #262626" transform="translate(29.834375 411.665739)scale(0.08 -0.08)">
       <use xlink:href="#Ubuntu-32"/>
      </g>
     </g>
    </g>
    <g id="ytick_18">
     <g id="line2d_30"/>
     <g id="text_37">
      <!-- 4 -->
      <g style="fill: #262626" transform="translate(29.834375 389.289955)scale(0.08 -0.08)">
       <use xlink:href="#Ubuntu-34"/>
      </g>
     </g>
    </g>
    <g id="ytick_19">
     <g id="line2d_31"/>
     <g id="text_38">
      <!-- 6 -->
      <g style="fill: #262626" transform="translate(29.834375 366.914172)scale(0.08 -0.08)">
       <use xlink:href="#Ubuntu-36"/>
      </g>
     </g>
    </g>
    <g id="ytick_20">
     <g id="line2d_32"/>
     <g id="text_39">
      <!-- 8 -->
      <g style="fill: #262626" transform="translate(29.834375 344.538388)scale(0.08 -0.08)">
       <use xlink:href="#Ubuntu-38"/>
      </g>
     </g>
    </g>
    <g id="ytick_21">
     <g id="line2d_33"/>
     <g id="text_40">
      <!-- 10 -->
      <g style="fill: #262626" transform="translate(25.321875 322.162604)scale(0.08 -0.08)">
       <use xlink:href="#Ubuntu-31"/>
       <use xlink:href="#Ubuntu-30" x="56.399994"/>
      </g>
     </g>
    </g>
    <g id="ytick_22">
     <g id="line2d_34"/>
     <g id="text_41">
      <!-- 12 -->
      <g style="fill: #262626" transform="translate(25.321875 299.78682)scale(0.08 -0.08)">
       <use xlink:href="#Ubuntu-31"/>
       <use xlink:href="#Ubuntu-32" x="56.399994"/>
      </g>
     </g>
    </g>
    <g id="ytick_23">
     <g id="line2d_35"/>
     <g id="text_42">
      <!-- 14 -->
      <g style="fill: #262626" transform="translate(25.321875 277.411036)scale(0.08 -0.08)">
       <use xlink:href="#Ubuntu-31"/>
       <use xlink:href="#Ubuntu-34" x="56.399994"/>
      </g>
     </g>
    </g>
    <g id="text_43">
     <!-- Marketing leads -->
     <g style="fill: #262626" transform="translate(19.442188 383.836337)rotate(-90)scale(0.1 -0.1)">
      <defs>
       <path id="Ubuntu-Bold-72" d="M 2477 2522 
Q 2349 2554 2176 2589 
Q 2003 2624 1805 2624 
Q 1715 2624 1590 2608 
Q 1466 2592 1402 2573 
L 1402 0 
L 448 0 
L 448 3187 
Q 704 3277 1053 3357 
Q 1402 3437 1830 3437 
Q 1907 3437 2016 3427 
Q 2125 3418 2233 3402 
Q 2342 3386 2451 3363 
Q 2560 3341 2637 3309 
L 2477 2522 
z
" transform="scale(0.015625)"/>
       <path id="Ubuntu-Bold-6b" d="M 1402 2150 
Q 1542 2304 1692 2470 
Q 1843 2637 1984 2800 
Q 2125 2963 2249 3110 
Q 2374 3258 2464 3366 
L 3597 3366 
Q 3258 2976 2934 2621 
Q 2611 2266 2227 1888 
Q 2419 1715 2624 1475 
Q 2829 1235 3021 979 
Q 3213 723 3373 467 
Q 3533 211 3642 0 
L 2547 0 
Q 2445 166 2313 368 
Q 2182 570 2035 771 
Q 1888 973 1725 1158 
Q 1562 1344 1402 1472 
L 1402 0 
L 448 0 
L 448 4813 
L 1402 4966 
L 1402 2150 
z
" transform="scale(0.015625)"/>
      </defs>
      <use xlink:href="#Ubuntu-Bold-4d"/>
      <use xlink:href="#Ubuntu-Bold-61" x="89.699982"/>
      <use xlink:href="#Ubuntu-Bold-72" x="144.999969"/>
      <use xlink:href="#Ubuntu-Bold-6b" x="187.199966"/>
      <use xlink:href="#Ubuntu-Bold-65" x="241.47496"/>
      <use xlink:href="#Ubuntu-Bold-74" x="299.874954"/>
      <use xlink:href="#Ubuntu-Bold-69" x="344.274948"/>
      <use xlink:href="#Ubuntu-Bold-6e" x="373.174942"/>
      <use xlink:href="#Ubuntu-Bold-67" x="432.074936"/>
      <use xlink:href="#Ubuntu-Bold-20" x="491.47493"/>
      <use xlink:href="#Ubuntu-Bold-6c" x="515.474915"/>
      <use xlink:href="#Ubuntu-Bold-65" x="547.074905"/>
      <use xlink:href="#Ubuntu-Bold-61" x="605.474899"/>
      <use xlink:href="#Ubuntu-Bold-64" x="660.774887"/>
      <use xlink:href="#Ubuntu-Bold-73" x="721.174881"/>
     </g>
    </g>
   </g>
   <g id="line2d_36">
    <path d="M 52.403397 374.998314 
L 100.925136 330.246746 
L 149.446875 330.246746 
L 197.968614 296.68307 
L 246.490353 330.246746 
" clip-path="url(#pd2f57d0f8a)" style="fill: none; stroke-dasharray: 2,3.3; stroke-dashoffset: 0; stroke: #1f77b4; stroke-width: 2"/>
    <defs>
     <path id="m8a72ee623f" d="M 0 3 
C 0.795609 3 1.55874 2.683901 2.12132 2.12132 
C 2.683901 1.55874 3 0.795609 3 0 
C 3 -0.795609 2.683901 -1.55874 2.12132 -2.12132 
C 1.55874 -2.683901 0.795609 -3 0 -3 
C -0.795609 -3 -1.55874 -2.683901 -2.12132 -2.12132 
C -2.683901 -1.55874 -3 -0.795609 -3 0 
C -3 0.795609 -2.683901 1.55874 -2.12132 2.12132 
C -1.55874 2.683901 -0.795609 3 0 3 
z
" style="stroke: #1f77b4"/>
    </defs>
    <g clip-path="url(#pd2f57d0f8a)">
     <use xlink:href="#m8a72ee623f" x="52.403397" y="374.998314" style="fill: #1f77b4; stroke: #1f77b4"/>
     <use xlink:href="#m8a72ee623f" x="100.925136" y="330.246746" style="fill: #1f77b4; stroke: #1f77b4"/>
     <use xlink:href="#m8a72ee623f" x="149.446875" y="330.246746" style="fill: #1f77b4; stroke: #1f77b4"/>
     <use xlink:href="#m8a72ee623f" x="197.968614" y="296.68307" style="fill: #1f77b4; stroke: #1f77b4"/>
     <use xlink:href="#m8a72ee623f" x="246.490353" y="330.246746" style="fill: #1f77b4; stroke: #1f77b4"/>
    </g>
   </g>
   <g id="line2d_37">
    <path d="M 52.403397 386.186205 
L 100.925136 397.374097 
L 149.446875 296.68307 
L 197.968614 341.434638 
L 246.490353 274.307286 
" clip-path="url(#pd2f57d0f8a)" style="fill: none; stroke-dasharray: 7.4,3.2; stroke-dashoffset: 0; stroke: #ff7f0e; stroke-width: 2"/>
    <defs>
     <path id="m9764b6347c" d="M -0 3 
L 3 -3 
L -3 -3 
z
" style="stroke: #ff7f0e; stroke-linejoin: miter"/>
    </defs>
    <g clip-path="url(#pd2f57d0f8a)">
     <use xlink:href="#m9764b6347c" x="52.403397" y="386.186205" style="fill: #ff7f0e; stroke: #ff7f0e; stroke-linejoin: miter"/>
     <use xlink:href="#m9764b6347c" x="100.925136" y="397.374097" style="fill: #ff7f0e; stroke: #ff7f0e; stroke-linejoin: miter"/>
     <use xlink:href="#m9764b6347c" x="149.446875" y="296.68307" style="fill: #ff7f0e; stroke: #ff7f0e; stroke-linejoin: miter"/>
     <use xlink:href="#m9764b6347c" x="197.968614" y="341.434638" style="fill: #ff7f0e; stroke: #ff7f0e; stroke-linejoin: miter"/>
     <use xlink:href="#m9764b6347c" x="246.490353" y="274.307286" style="fill: #ff7f0e; stroke: #ff7f0e; stroke-linejoin: miter"/>
    </g>
   </g>
   <g id="line2d_38">
    <path d="M 52.403397 419.749881 
L 100.925136 397.374097 
L 149.446875 386.186205 
L 197.968614 408.561989 
L 246.490353 374.998314 
" clip-path="url(#pd2f57d0f8a)" style="fill: none; stroke-dasharray: 12.8,3.2,2,3.2; stroke-dashoffset: 0; stroke: #2ca02c; stroke-width: 2"/>
    <defs>
     <path id="m480f0a9135" d="M -3 3 
L 3 3 
L 3 -3 
L -3 -3 
z
" style="stroke: #2ca02c; stroke-linejoin: miter"/>
    </defs>
    <g clip-path="url(#pd2f57d0f8a)">
     <use xlink:href="#m480f0a9135" x="52.403397" y="419.749881" style="fill: #2ca02c; stroke: #2ca02c; stroke-linejoin: miter"/>
     <use xlink:href="#m480f0a9135" x="100.925136" y="397.374097" style="fill: #2ca02c; stroke: #2ca02c; stroke-linejoin: miter"/>
     <use xlink:href="#m480f0a9135" x="149.446875" y="386.186205" style="fill: #2ca02c; stroke: #2ca02c; stroke-linejoin: miter"/>
     <use xlink:href="#m480f0a9135" x="197.968614" y="408.561989" style="fill: #2ca02c; stroke: #2ca02c; stroke-linejoin: miter"/>
     <use xlink:href="#m480f0a9135" x="246.490353" y="374.998314" style="fill: #2ca02c; stroke: #2ca02c; stroke-linejoin: miter"/>
    </g>
   </g>
   <g id="patch_23">
    <path d="M 37.846875 428.1408 
L 37.846875 262.56 
" style="fill: none; stroke: #262626; stroke-width: 1.25; stroke-linejoin: miter; stroke-linecap: square"/>
   </g>
   <g id="patch_24">
    <path d="M 261.046875 428.1408 
L 261.046875 262.56 
" style="fill: none; stroke: #262626; stroke-width: 1.25; stroke-linejoin: miter; stroke-linecap: square"/>
   </g>
   <g id="patch_25">
    <path d="M 37.846875 428.1408 
L 261.046875 428.1408 
" style="fill: none; stroke: #262626; stroke-width: 1.25; stroke-linejoin: miter; stroke-linecap: square"/>
   </g>
   <g id="patch_26">
    <path d="M 37.846875 262.56 
L 261.046875 262.56 
" style="fill: none; stroke: #262626; stroke-width: 1.25; stroke-linejoin: miter; stroke-linecap: square"/>
   </g>
   <g id="text_44">
    <!-- Leads by channel -->
    <g style="fill: #262626" transform="translate(112.367969 256.56)scale(0.1 -0.1)">
     <defs>
      <path id="Ubuntu-Italic-4c" d="M 3226 518 
L 3104 0 
L 518 0 
L 1581 4435 
L 2202 4435 
L 1261 518 
L 3226 518 
z
" transform="scale(0.015625)"/>
      <path id="Ubuntu-Italic-62" d="M 1850 3194 
Q 1997 3283 2189 3347 
Q 2381 3411 2598 3411 
Q 2874 3411 3082 3321 
Q 3290 3232 3424 3075 
Q 3558 2918 3625 2700 
Q 3693 2483 3693 2234 
Q 3693 1792 3552 1379 
Q 3411 966 3123 643 
Q 2835 320 2403 125 
Q 1971 -70 1389 -70 
Q 1293 -70 1177 -60 
Q 1062 -51 944 -25 
Q 826 0 714 38 
Q 602 77 518 128 
L 1651 4864 
L 2272 4966 
L 1850 3194 
z
M 2451 2906 
Q 2259 2906 2070 2838 
Q 1882 2771 1715 2650 
L 1197 480 
Q 1261 467 1344 454 
Q 1427 442 1510 442 
Q 1875 442 2169 586 
Q 2464 730 2669 970 
Q 2874 1210 2986 1520 
Q 3098 1830 3098 2170 
Q 3098 2310 3069 2444 
Q 3040 2579 2966 2681 
Q 2893 2784 2768 2845 
Q 2643 2906 2451 2906 
z
" transform="scale(0.015625)"/>
      <path id="Ubuntu-Italic-79" d="M 1798 538 
Q 2042 922 2240 1334 
Q 2438 1747 2588 2124 
Q 2739 2502 2841 2819 
Q 2944 3136 2989 3328 
L 3610 3328 
Q 3539 3085 3411 2723 
Q 3283 2362 3100 1942 
Q 2918 1523 2691 1084 
Q 2464 646 2195 243 
Q 1990 -58 1785 -323 
Q 1581 -589 1347 -784 
Q 1114 -979 832 -1091 
Q 550 -1203 198 -1203 
Q 19 -1203 -134 -1158 
Q -288 -1114 -358 -1062 
L -154 -576 
Q -90 -627 19 -662 
Q 128 -698 262 -698 
Q 634 -698 893 -518 
Q 1152 -339 1382 -45 
Q 1146 730 995 1587 
Q 845 2445 813 3328 
L 1421 3328 
Q 1427 3040 1452 2697 
Q 1478 2355 1526 1987 
Q 1574 1619 1641 1248 
Q 1709 877 1798 538 
z
" transform="scale(0.015625)"/>
      <path id="Ubuntu-Italic-68" d="M 486 0 
L 1658 4864 
L 2278 4966 
L 1869 3283 
Q 2016 3334 2179 3366 
Q 2342 3398 2509 3398 
Q 2797 3398 3005 3318 
Q 3213 3238 3341 3100 
Q 3469 2963 3529 2768 
Q 3590 2573 3590 2342 
Q 3590 2061 3501 1702 
L 3091 0 
L 2496 0 
L 2874 1574 
Q 2918 1754 2960 1939 
Q 3002 2125 3002 2291 
Q 3002 2547 2861 2716 
Q 2720 2886 2336 2886 
Q 2182 2886 2019 2857 
Q 1856 2829 1747 2778 
L 1082 0 
L 486 0 
z
" transform="scale(0.015625)"/>
     </defs>
     <use xlink:href="#Ubuntu-Italic-4c"/>
     <use xlink:href="#Ubuntu-Italic-65" x="46.449997"/>
     <use xlink:href="#Ubuntu-Italic-61" x="98.249985"/>
     <use xlink:href="#Ubuntu-Italic-64" x="152.649979"/>
     <use xlink:href="#Ubuntu-Italic-73" x="207.349976"/>
     <use xlink:href="#Ubuntu-Italic-20" x="248.549973"/>
     <use xlink:href="#Ubuntu-Italic-62" x="271.649963"/>
     <use xlink:href="#Ubuntu-Italic-79" x="326.399948"/>
     <use xlink:href="#Ubuntu-Italic-20" x="374.199936"/>
     <use xlink:href="#Ubuntu-Italic-63" x="397.299927"/>
     <use xlink:href="#Ubuntu-Italic-68" x="442.399918"/>
     <use xlink:href="#Ubuntu-Italic-61" x="497.599915"/>
     <use xlink:href="#Ubuntu-Italic-6e" x="551.999908"/>
     <use xlink:href="#Ubuntu-Italic-6e" x="607.099899"/>
     <use xlink:href="#Ubuntu-Italic-65" x="662.19989"/>
     <use xlink:href="#Ubuntu-Italic-6c" x="713.999878"/>
    </g>
   </g>
   <g id="legend_1">
    <g id="line2d_39">
     <path d="M 46.846875 275.819375 
L 56.846875 275.819375 
L 66.846875 275.819375 
" style="fill: none; stroke-dasharray: 2,3.3; stroke-dashoffset: 0; stroke: #1f77b4; stroke-width: 2"/>
     <g>
      <use xlink:href="#m8a72ee623f" x="56.846875" y="275.819375" style="fill: #1f77b4; stroke: #1f77b4"/>
     </g>
    </g>
    <g id="text_45">
     <!-- web -->
     <g style="fill: #262626" transform="translate(74.846875 279.319375)scale(0.1 -0.1)">
      <defs>
       <path id="Ubuntu-77" d="M 3232 0 
Q 3053 461 2851 1053 
Q 2650 1645 2483 2285 
Q 2317 1645 2118 1053 
Q 1920 461 1741 0 
L 1222 0 
Q 928 659 646 1504 
Q 365 2349 115 3328 
L 755 3328 
Q 819 3027 908 2675 
Q 998 2323 1097 1971 
Q 1197 1619 1305 1292 
Q 1414 966 1510 723 
Q 1619 1024 1724 1360 
Q 1830 1696 1926 2038 
Q 2022 2381 2108 2710 
Q 2195 3040 2259 3328 
L 2752 3328 
Q 2810 3040 2893 2710 
Q 2976 2381 3072 2038 
Q 3168 1696 3273 1360 
Q 3379 1024 3488 723 
Q 3584 966 3689 1292 
Q 3795 1619 3897 1971 
Q 4000 2323 4089 2675 
Q 4179 3027 4243 3328 
L 4858 3328 
Q 4608 2349 4326 1504 
Q 4045 659 3750 0 
L 3232 0 
z
" transform="scale(0.015625)"/>
      </defs>
      <use xlink:href="#Ubuntu-77"/>
      <use xlink:href="#Ubuntu-65" x="77.699982"/>
      <use xlink:href="#Ubuntu-62" x="133.599976"/>
     </g>
    </g>
    <g id="line2d_40">
     <path d="M 46.846875 290.42875 
L 56.846875 290.42875 
L 66.846875 290.42875 
" style="fill: none; stroke-dasharray: 7.4,3.2; stroke-dashoffset: 0; stroke: #ff7f0e; stroke-width: 2"/>
     <g>
      <use xlink:href="#m9764b6347c" x="56.846875" y="290.42875" style="fill: #ff7f0e; stroke: #ff7f0e; stroke-linejoin: miter"/>
     </g>
    </g>
    <g id="text_46">
     <!-- telemarketing -->
     <g style="fill: #262626" transform="translate(74.846875 293.92875)scale(0.1 -0.1)">
      <defs>
       <path id="Ubuntu-6c" d="M 1510 -64 
Q 960 -51 729 173 
Q 499 397 499 870 
L 499 4864 
L 1094 4966 
L 1094 966 
Q 1094 819 1120 723 
Q 1146 627 1203 569 
Q 1261 512 1357 483 
Q 1453 454 1594 435 
L 1510 -64 
z
" transform="scale(0.015625)"/>
       <path id="Ubuntu-6d" d="M 512 3232 
Q 717 3283 1053 3340 
Q 1389 3398 1830 3398 
Q 2150 3398 2368 3312 
Q 2586 3226 2733 3059 
Q 2778 3091 2874 3148 
Q 2970 3206 3110 3260 
Q 3251 3315 3424 3356 
Q 3597 3398 3795 3398 
Q 4179 3398 4422 3286 
Q 4666 3174 4803 2969 
Q 4941 2765 4989 2483 
Q 5037 2202 5037 1869 
L 5037 0 
L 4442 0 
L 4442 1741 
Q 4442 2035 4413 2246 
Q 4384 2458 4304 2598 
Q 4224 2739 4086 2806 
Q 3949 2874 3731 2874 
Q 3430 2874 3235 2794 
Q 3040 2714 2970 2650 
Q 3021 2483 3046 2284 
Q 3072 2086 3072 1869 
L 3072 0 
L 2477 0 
L 2477 1741 
Q 2477 2035 2445 2246 
Q 2413 2458 2333 2598 
Q 2253 2739 2115 2806 
Q 1978 2874 1766 2874 
Q 1677 2874 1574 2867 
Q 1472 2861 1379 2851 
Q 1286 2842 1209 2829 
Q 1133 2816 1107 2810 
L 1107 0 
L 512 0 
L 512 3232 
z
" transform="scale(0.015625)"/>
       <path id="Ubuntu-72" d="M 1741 3398 
Q 1818 3398 1917 3388 
Q 2016 3379 2112 3363 
Q 2208 3347 2288 3331 
Q 2368 3315 2406 3302 
L 2304 2784 
Q 2234 2810 2070 2845 
Q 1907 2880 1651 2880 
Q 1485 2880 1321 2845 
Q 1158 2810 1107 2797 
L 1107 0 
L 512 0 
L 512 3187 
Q 723 3264 1036 3331 
Q 1350 3398 1741 3398 
z
" transform="scale(0.015625)"/>
       <path id="Ubuntu-6b" d="M 1715 1830 
Q 1907 1683 2121 1465 
Q 2336 1248 2544 995 
Q 2752 742 2937 483 
Q 3123 224 3251 0 
L 2554 0 
Q 2419 224 2243 457 
Q 2067 691 1875 905 
Q 1683 1120 1484 1299 
Q 1286 1478 1107 1600 
L 1107 0 
L 512 0 
L 512 4864 
L 1107 4966 
L 1107 1933 
Q 1261 2086 1446 2272 
Q 1632 2458 1811 2650 
Q 1990 2842 2150 3018 
Q 2310 3194 2426 3328 
L 3123 3328 
Q 2976 3168 2803 2976 
Q 2630 2784 2444 2589 
Q 2259 2394 2070 2198 
Q 1882 2003 1715 1830 
z
" transform="scale(0.015625)"/>
       <path id="Ubuntu-69" d="M 1107 0 
L 512 0 
L 512 3328 
L 1107 3328 
L 1107 0 
z
M 806 3930 
Q 646 3930 534 4035 
Q 422 4141 422 4320 
Q 422 4499 534 4604 
Q 646 4710 806 4710 
Q 966 4710 1078 4604 
Q 1190 4499 1190 4320 
Q 1190 4141 1078 4035 
Q 966 3930 806 3930 
z
" transform="scale(0.015625)"/>
       <path id="Ubuntu-67" d="M 2598 333 
Q 2522 282 2301 202 
Q 2080 122 1786 122 
Q 1485 122 1219 218 
Q 954 314 755 515 
Q 557 717 441 1017 
Q 326 1318 326 1734 
Q 326 2099 435 2403 
Q 544 2707 752 2928 
Q 960 3149 1261 3273 
Q 1562 3398 1939 3398 
Q 2355 3398 2665 3337 
Q 2976 3277 3187 3226 
L 3187 256 
Q 3187 -512 2790 -857 
Q 2394 -1203 1587 -1203 
Q 1274 -1203 995 -1152 
Q 717 -1101 512 -1030 
L 621 -512 
Q 800 -582 1059 -636 
Q 1318 -691 1600 -691 
Q 2131 -691 2364 -480 
Q 2598 -269 2598 192 
L 2598 333 
z
M 2592 2803 
Q 2502 2829 2352 2851 
Q 2202 2874 1946 2874 
Q 1466 2874 1206 2560 
Q 947 2246 947 1728 
Q 947 1440 1020 1235 
Q 1094 1030 1219 896 
Q 1344 762 1507 698 
Q 1670 634 1843 634 
Q 2080 634 2278 701 
Q 2477 768 2592 858 
L 2592 2803 
z
" transform="scale(0.015625)"/>
      </defs>
      <use xlink:href="#Ubuntu-74"/>
      <use xlink:href="#Ubuntu-65" x="39.199997"/>
      <use xlink:href="#Ubuntu-6c" x="95.099991"/>
      <use xlink:href="#Ubuntu-65" x="122.399979"/>
      <use xlink:href="#Ubuntu-6d" x="178.299973"/>
      <use xlink:href="#Ubuntu-61" x="264.399963"/>
      <use xlink:href="#Ubuntu-72" x="316.59996"/>
      <use xlink:href="#Ubuntu-6b" x="355.199951"/>
      <use xlink:href="#Ubuntu-65" x="404.774948"/>
      <use xlink:href="#Ubuntu-74" x="460.674942"/>
      <use xlink:href="#Ubuntu-69" x="500.874939"/>
      <use xlink:href="#Ubuntu-6e" x="526.174927"/>
      <use xlink:href="#Ubuntu-67" x="583.574921"/>
     </g>
    </g>
    <g id="line2d_41">
     <path d="M 46.846875 305.067812 
L 56.846875 305.067812 
L 66.846875 305.067812 
" style="fill: none; stroke-dasharray: 12.8,3.2,2,3.2; stroke-dashoffset: 0; stroke: #2ca02c; stroke-width: 2"/>
     <g>
      <use xlink:href="#m480f0a9135" x="56.846875" y="305.067812" style="fill: #2ca02c; stroke: #2ca02c; stroke-linejoin: miter"/>
     </g>
    </g>
    <g id="text_47">
     <!-- sales team -->
     <g style="fill: #262626" transform="translate(74.846875 308.567812)scale(0.1 -0.1)">
      <defs>
       <path id="Ubuntu-73" d="M 1286 429 
Q 1651 429 1827 525 
Q 2003 621 2003 832 
Q 2003 1050 1830 1178 
Q 1658 1306 1261 1466 
Q 1069 1542 893 1622 
Q 717 1702 589 1811 
Q 461 1920 384 2073 
Q 307 2227 307 2451 
Q 307 2893 633 3152 
Q 960 3411 1523 3411 
Q 1664 3411 1805 3395 
Q 1946 3379 2067 3356 
Q 2189 3334 2281 3308 
Q 2374 3283 2426 3264 
L 2317 2752 
Q 2221 2803 2016 2857 
Q 1811 2912 1523 2912 
Q 1274 2912 1088 2813 
Q 902 2714 902 2502 
Q 902 2394 944 2310 
Q 986 2227 1072 2160 
Q 1158 2093 1286 2035 
Q 1414 1978 1594 1914 
Q 1830 1824 2016 1737 
Q 2202 1651 2333 1536 
Q 2464 1421 2534 1257 
Q 2605 1094 2605 858 
Q 2605 397 2262 160 
Q 1920 -77 1286 -77 
Q 845 -77 595 -3 
Q 346 70 256 109 
L 365 621 
Q 467 582 691 505 
Q 915 429 1286 429 
z
" transform="scale(0.015625)"/>
       <path id="Ubuntu-20" transform="scale(0.015625)"/>
      </defs>
      <use xlink:href="#Ubuntu-73"/>
      <use xlink:href="#Ubuntu-61" x="44.599991"/>
      <use xlink:href="#Ubuntu-6c" x="96.799988"/>
      <use xlink:href="#Ubuntu-65" x="124.099976"/>
      <use xlink:href="#Ubuntu-73" x="179.999969"/>
      <use xlink:href="#Ubuntu-20" x="224.59996"/>
      <use xlink:href="#Ubuntu-74" x="247.699951"/>
      <use xlink:href="#Ubuntu-65" x="286.899948"/>
      <use xlink:href="#Ubuntu-61" x="342.799942"/>
      <use xlink:href="#Ubuntu-6d" x="394.999939"/>
     </g>
    </g>
   </g>
  </g>
  <g id="text_48">
   <!-- Seaborn-white style example -->
   <g style="fill: #262626" transform="translate(67.149375 16.51125)scale(0.12 -0.12)">
    <defs>
     <path id="Ubuntu-53" d="M 1581 442 
Q 2554 442 2554 1107 
Q 2554 1312 2467 1456 
Q 2381 1600 2233 1705 
Q 2086 1811 1897 1888 
Q 1709 1965 1498 2042 
Q 1254 2125 1036 2230 
Q 819 2336 659 2480 
Q 499 2624 406 2822 
Q 314 3021 314 3302 
Q 314 3885 710 4211 
Q 1107 4538 1805 4538 
Q 2208 4538 2537 4451 
Q 2867 4365 3021 4262 
L 2822 3757 
Q 2688 3840 2422 3920 
Q 2157 4000 1805 4000 
Q 1626 4000 1472 3961 
Q 1318 3923 1203 3846 
Q 1088 3770 1021 3651 
Q 954 3533 954 3373 
Q 954 3194 1024 3072 
Q 1094 2950 1222 2857 
Q 1350 2765 1520 2688 
Q 1690 2611 1894 2534 
Q 2182 2419 2422 2304 
Q 2662 2189 2838 2029 
Q 3014 1869 3110 1648 
Q 3206 1427 3206 1114 
Q 3206 531 2780 217 
Q 2355 -96 1581 -96 
Q 1318 -96 1097 -61 
Q 877 -26 704 22 
Q 531 70 406 124 
Q 282 179 211 218 
L 397 730 
Q 544 646 845 544 
Q 1146 442 1581 442 
z
" transform="scale(0.015625)"/>
     <path id="Ubuntu-2d" d="M 166 2195 
L 1747 2195 
L 1747 1638 
L 166 1638 
L 166 2195 
z
" transform="scale(0.015625)"/>
     <path id="Ubuntu-68" d="M 512 0 
L 512 4864 
L 1107 4966 
L 1107 3264 
Q 1274 3328 1462 3363 
Q 1651 3398 1837 3398 
Q 2234 3398 2496 3286 
Q 2758 3174 2915 2972 
Q 3072 2771 3136 2489 
Q 3200 2208 3200 1869 
L 3200 0 
L 2605 0 
L 2605 1741 
Q 2605 2048 2563 2265 
Q 2522 2483 2426 2617 
Q 2330 2752 2170 2813 
Q 2010 2874 1773 2874 
Q 1677 2874 1574 2861 
Q 1472 2848 1379 2832 
Q 1286 2816 1212 2797 
Q 1139 2778 1107 2765 
L 1107 0 
L 512 0 
z
" transform="scale(0.015625)"/>
     <path id="Ubuntu-79" d="M 122 -621 
Q 192 -653 304 -681 
Q 416 -710 525 -710 
Q 877 -710 1075 -553 
Q 1274 -397 1434 -45 
Q 1030 723 681 1584 
Q 333 2445 102 3328 
L 742 3328 
Q 813 3040 912 2707 
Q 1011 2374 1132 2022 
Q 1254 1670 1395 1318 
Q 1536 966 1690 640 
Q 1933 1312 2112 1971 
Q 2291 2630 2451 3328 
L 3066 3328 
Q 2835 2387 2553 1520 
Q 2272 653 1946 -102 
Q 1818 -390 1680 -598 
Q 1542 -806 1376 -940 
Q 1210 -1075 1002 -1139 
Q 794 -1203 531 -1203 
Q 461 -1203 384 -1193 
Q 307 -1184 233 -1168 
Q 160 -1152 99 -1133 
Q 38 -1114 13 -1101 
L 122 -621 
z
" transform="scale(0.015625)"/>
     <path id="Ubuntu-78" d="M 2502 0 
Q 2432 141 2329 313 
Q 2227 486 2105 668 
Q 1984 851 1856 1030 
Q 1728 1210 1606 1370 
Q 1485 1210 1357 1027 
Q 1229 845 1110 662 
Q 992 480 889 307 
Q 787 134 717 0 
L 102 0 
Q 326 435 636 886 
Q 947 1338 1254 1747 
L 154 3328 
L 826 3328 
L 1619 2163 
L 2419 3328 
L 3053 3328 
L 1978 1786 
Q 2285 1370 2608 906 
Q 2931 442 3155 0 
L 2502 0 
z
" transform="scale(0.015625)"/>
     <path id="Ubuntu-70" d="M 2822 1658 
Q 2822 2240 2534 2553 
Q 2246 2867 1766 2867 
Q 1498 2867 1347 2848 
Q 1197 2829 1107 2803 
L 1107 704 
Q 1216 614 1421 531 
Q 1626 448 1869 448 
Q 2125 448 2307 541 
Q 2490 634 2605 797 
Q 2720 960 2771 1181 
Q 2822 1402 2822 1658 
z
M 3443 1658 
Q 3443 1280 3344 960 
Q 3245 640 3053 409 
Q 2861 179 2582 51 
Q 2304 -77 1946 -77 
Q 1658 -77 1437 0 
Q 1216 77 1107 147 
L 1107 -1184 
L 512 -1184 
L 512 3226 
Q 723 3277 1040 3337 
Q 1357 3398 1773 3398 
Q 2157 3398 2464 3276 
Q 2771 3155 2988 2931 
Q 3206 2707 3324 2384 
Q 3443 2061 3443 1658 
z
" transform="scale(0.015625)"/>
    </defs>
    <use xlink:href="#Ubuntu-53"/>
    <use xlink:href="#Ubuntu-65" x="53.199997"/>
    <use xlink:href="#Ubuntu-61" x="109.099991"/>
    <use xlink:href="#Ubuntu-62" x="161.299988"/>
    <use xlink:href="#Ubuntu-6f" x="220.199982"/>
    <use xlink:href="#Ubuntu-72" x="279.199966"/>
    <use xlink:href="#Ubuntu-6e" x="317.799957"/>
    <use xlink:href="#Ubuntu-2d" x="375.199951"/>
    <use xlink:href="#Ubuntu-77" x="405.099945"/>
    <use xlink:href="#Ubuntu-68" x="482.799927"/>
    <use xlink:href="#Ubuntu-69" x="539.899918"/>
    <use xlink:href="#Ubuntu-74" x="565.199905"/>
    <use xlink:href="#Ubuntu-65" x="604.399902"/>
    <use xlink:href="#Ubuntu-20" x="660.299896"/>
    <use xlink:href="#Ubuntu-73" x="683.399887"/>
    <use xlink:href="#Ubuntu-74" x="727.999878"/>
    <use xlink:href="#Ubuntu-79" x="768.199875"/>
    <use xlink:href="#Ubuntu-6c" x="817.899872"/>
    <use xlink:href="#Ubuntu-65" x="845.19986"/>
    <use xlink:href="#Ubuntu-20" x="901.099854"/>
    <use xlink:href="#Ubuntu-65" x="924.199844"/>
    <use xlink:href="#Ubuntu-78" x="980.099838"/>
    <use xlink:href="#Ubuntu-61" x="1031.199829"/>
    <use xlink:href="#Ubuntu-6d" x="1083.399826"/>
    <use xlink:href="#Ubuntu-70" x="1169.499817"/>
    <use xlink:href="#Ubuntu-6c" x="1228.399811"/>
    <use xlink:href="#Ubuntu-65" x="1255.699799"/>
   </g>
  </g>
 </g>
 <defs>
  <clipPath id="pb17339ad0b">
   <rect x="37.846875" y="55.584" width="93" height="165.5808"/>
  </clipPath>
  <clipPath id="p1445b64604">
   <rect x="168.046875" y="55.584" width="93" height="165.5808"/>
  </clipPath>
  <clipPath id="pd2f57d0f8a">
   <rect x="37.846875" y="262.56" width="223.2" height="165.5808"/>
  </clipPath>
 </defs>
</svg>
